<svg width="25" height="24" viewBox="0 0 25 24" fill="none" xmlns="http://www.w3.org/2000/svg">
<mask id="mask0_1225_11857" style="mask-type:alpha" maskUnits="userSpaceOnUse" x="0" y="0" width="25" height="24">
<rect x="0.5" width="24" height="24" fill="#D9D9D9"/>
</mask>
<g mask="url(#mask0_1225_11857)">
<path d="M9.49997 15H6.39997C5.99997 15 5.70414 14.8208 5.51247 14.4625C5.3208 14.1041 5.34164 13.7583 5.57497 13.425L13.05 2.67496C13.2166 2.44163 13.4333 2.27913 13.7 2.18746C13.9666 2.0958 14.2416 2.09996 14.525 2.19996C14.8083 2.29996 15.0166 2.47496 15.15 2.72496C15.2833 2.97496 15.3333 3.24163 15.3 3.52497L14.5 9.99997H18.375C18.8083 9.99997 19.1125 10.1916 19.2875 10.575C19.4625 10.9583 19.4083 11.3166 19.125 11.65L10.9 21.5C10.7166 21.7166 10.4916 21.8583 10.225 21.925C9.9583 21.9916 9.69997 21.9666 9.44997 21.85C9.19997 21.7333 9.00414 21.5541 8.86247 21.3125C8.7208 21.0708 8.66664 20.8083 8.69997 20.525L9.49997 15Z" fill="#C0C8C4"/>
</g>
</svg>
