<svg width="24" height="24" viewBox="0 0 24 24" fill="none" xmlns="http://www.w3.org/2000/svg">
<path fill-rule="evenodd" clip-rule="evenodd" d="M10.6367 23.1395C9.5687 23.1395 8.52812 22.9184 7.5407 22.4812C5.62755 21.6344 4.15327 20.0778 3.38698 18.0961C2.6207 16.1161 2.65498 13.9492 3.48127 11.9966C3.94927 10.8892 4.66927 9.8915 5.56241 9.10807C5.50927 7.90636 5.7287 6.6875 6.1967 5.58007C7.4327 2.65721 10.2664 0.768072 13.4138 0.768072H13.671H15.6904C17.3567 0.768072 19.3658 0.766357 19.6058 0.766357C20.187 0.766357 20.6173 1.13493 20.6961 1.21036C20.7733 1.27893 21.1676 1.66636 21.1676 2.37093C21.1676 2.71036 21.1658 5.42579 21.1641 7.22407L21.1624 8.77379C21.159 9.8555 20.943 10.9115 20.5196 11.9126C20.0516 13.0201 19.3316 14.0178 18.4384 14.8012C18.4916 16.0029 18.2721 17.2218 17.8041 18.3292C16.5647 21.2504 13.7533 23.1395 10.6367 23.1395ZM6.02012 11.4549C5.71498 11.8561 5.45784 12.2984 5.25727 12.7715C4.63327 14.2458 4.60927 15.8812 5.18698 17.3744C5.7647 18.8675 6.87555 20.0401 8.31384 20.6761C9.05612 21.0052 9.83784 21.1715 10.6384 21.1715C12.9801 21.1715 15.0956 19.7504 16.0247 17.5492C16.227 17.0726 16.3676 16.5738 16.443 16.0681C15.4693 16.4966 14.403 16.7212 13.3504 16.7212C12.2841 16.7212 11.2418 16.5001 10.2544 16.0629C9.10927 15.5555 8.09098 14.7686 7.30755 13.7846C6.76412 13.1006 6.32012 12.2966 6.02012 11.4549ZM7.61955 10.0098C8.01898 11.9041 9.28927 13.4898 11.0276 14.2595C11.7698 14.5886 12.5516 14.7549 13.3521 14.7549C14.4184 14.7549 15.4624 14.4584 16.3778 13.8961C15.9784 12.0018 14.7081 10.4161 12.9698 9.64636C12.2276 9.31722 11.4458 9.15093 10.6453 9.15093C9.57898 9.14921 8.53327 9.4475 7.61955 10.0098ZM10.7138 7.18293C11.7578 7.1915 12.7761 7.41436 13.7413 7.84121C14.8864 8.34864 15.9047 9.1355 16.6881 10.1178C17.2333 10.8018 17.6773 11.6058 17.9773 12.4475C18.2841 12.0464 18.5396 11.6041 18.7401 11.1309C19.0984 10.2824 19.0984 9.30693 19.0984 8.44464C19.0984 8.26636 19.0984 8.07779 19.0984 7.88236V7.65779C19.0984 7.20522 19.0984 6.69264 19.0984 6.2195C19.0967 5.59207 19.0967 4.96122 19.0984 4.41779V4.2755C19.0984 4.09721 19.0984 3.93264 19.0984 3.78521V2.83893C19.0984 2.83893 13.4824 2.83893 13.4807 2.83893C13.4293 2.83893 13.3984 2.83893 13.3813 2.83893C13.3744 2.83893 13.3676 2.83893 13.3607 2.83893H13.3538C11.0224 2.83893 8.85898 4.2515 7.97098 6.35321C7.7687 6.82979 7.62812 7.32864 7.5527 7.83436C8.50584 7.41607 9.54641 7.18979 10.575 7.18121L10.7138 7.18293Z" fill="#C0C8C4"/>
<path fill-rule="evenodd" clip-rule="evenodd" d="M10.6363 23.071C9.57861 23.071 8.54661 22.8515 7.56775 22.4178C5.67175 21.5778 4.20946 20.035 3.45004 18.0704C2.69061 16.1075 2.72318 13.9595 3.54261 12.0224C4.01232 10.9133 4.73232 9.91725 5.63061 9.13725C5.57232 7.93382 5.78832 6.71497 6.25804 5.60582C7.48375 2.70868 10.2918 0.834966 13.4118 0.834966H13.6689C14.7935 0.834966 19.2403 0.833252 19.602 0.833252C20.1575 0.833252 20.5655 1.18297 20.646 1.25839C20.7249 1.32868 21.0952 1.69554 21.0952 2.36925C21.0952 2.79782 21.0918 7.04925 21.09 8.34182V8.77211C21.0866 9.84525 20.8723 10.8927 20.4523 11.8853C19.9826 12.9944 19.2626 13.9904 18.3643 14.7704C18.4226 15.9738 18.2066 17.1927 17.7369 18.3018C16.5129 21.1973 13.7255 23.071 10.6363 23.071ZM6.04375 11.3144C5.69918 11.7464 5.41461 12.2264 5.19346 12.7458C4.56261 14.2373 4.53689 15.8898 5.12146 17.4001C5.70604 18.9087 6.82889 20.095 8.28432 20.7395C9.03518 21.0721 9.82718 21.2401 10.6363 21.2401C13.0055 21.2401 15.1449 19.8018 16.086 17.575C16.3072 17.0521 16.4546 16.5087 16.5249 15.9533C15.5289 16.411 14.4369 16.6527 13.3483 16.6527C12.2906 16.6527 11.2586 16.4333 10.2798 15.9995C9.14489 15.4973 8.13518 14.7155 7.35861 13.7418C6.79289 13.027 6.34032 12.1938 6.04375 11.3144ZM7.54204 9.97554C7.93461 11.9144 9.21861 13.5327 10.998 14.3213C11.7489 14.6538 12.5392 14.8218 13.35 14.8218C14.4472 14.8218 15.5169 14.5133 16.4529 13.927C16.0603 11.9881 14.7763 10.3698 12.9969 9.58125C12.246 9.24868 11.4558 9.08068 10.6449 9.08068C9.54775 9.08068 8.47804 9.39097 7.54204 9.97554ZM10.6449 7.25154C11.7026 7.25154 12.7346 7.47097 13.7135 7.90468C14.8483 8.40697 15.858 9.18697 16.6346 10.1624C17.2038 10.8773 17.6563 11.7104 17.9529 12.5915C18.2975 12.1595 18.582 11.6795 18.8032 11.1601C19.1666 10.2995 19.1666 9.31554 19.1666 8.44811C19.1666 8.2424 19.1666 8.02125 19.1666 7.79325V7.76582C19.1666 7.28068 19.1666 6.73211 19.1666 6.22125C19.1649 5.58525 19.1649 4.93897 19.1666 4.41954V4.37497C19.1666 4.15897 19.1666 3.96182 19.1666 3.78697V2.77211H13.4838C13.4255 2.77211 13.3929 2.77211 13.374 2.77211C13.3689 2.77211 13.362 2.77211 13.3569 2.77211H13.3535C10.9946 2.77211 8.80718 4.20182 7.90718 6.32754C7.68604 6.8504 7.53861 7.39382 7.46832 7.94925C8.46432 7.49154 9.55632 7.25154 10.6449 7.25154Z" fill="#C0C8C4"/>
<path fill-rule="evenodd" clip-rule="evenodd" d="M10.4914 12.5263C10.9131 12.5263 11.2542 12.1766 11.2542 11.7463C11.2542 11.316 10.9131 10.9663 10.4914 10.9663C10.0697 10.9663 9.72852 11.316 9.72852 11.7463C9.72852 12.1766 10.0697 12.5263 10.4914 12.5263Z" fill="#C0C8C4"/>
<path fill-rule="evenodd" clip-rule="evenodd" d="M14.2294 12.0343C14.2294 12.6086 13.7751 13.0749 13.2129 13.0749C12.6523 13.0749 12.1963 12.6086 12.1963 12.0343C12.1963 11.4601 12.6506 10.9938 13.2129 10.9938C13.7734 10.9955 14.2294 11.4601 14.2294 12.0343Z" fill="#C0C8C4"/>
</svg>
