<svg width="25" height="24" viewBox="0 0 25 24" fill="none" xmlns="http://www.w3.org/2000/svg">
<mask id="mask0_1225_11844" style="mask-type:alpha" maskUnits="userSpaceOnUse" x="0" y="0" width="25" height="24">
<rect x="0.5" width="24" height="24" fill="#D9D9D9"/>
</mask>
<g mask="url(#mask0_1225_11844)">
<path d="M9.4998 13C9.21647 13 8.97897 12.9042 8.7873 12.7125C8.59564 12.5209 8.4998 12.2834 8.4998 12V5.82505L6.6248 7.70005C6.44147 7.88338 6.2123 7.97505 5.9373 7.97505C5.6623 7.97505 5.4248 7.88338 5.2248 7.70005C5.0248 7.50005 4.9248 7.26255 4.9248 6.98755C4.9248 6.71255 5.0248 6.47505 5.2248 6.27505L8.7998 2.70005C8.8998 2.60005 9.00814 2.52922 9.1248 2.48755C9.24147 2.44588 9.36647 2.42505 9.4998 2.42505C9.63314 2.42505 9.75814 2.44588 9.8748 2.48755C9.99147 2.52922 10.0998 2.60005 10.1998 2.70005L13.7998 6.30005C13.9998 6.50005 14.0956 6.73338 14.0873 7.00005C14.079 7.26672 13.9748 7.50005 13.7748 7.70005C13.5748 7.88338 13.3415 7.97922 13.0748 7.98755C12.8081 7.99588 12.5748 7.90005 12.3748 7.70005L10.4998 5.82505V12C10.4998 12.2834 10.404 12.5209 10.2123 12.7125C10.0206 12.9042 9.78314 13 9.4998 13ZM15.4998 21.575C15.3665 21.575 15.2415 21.5542 15.1248 21.5125C15.0081 21.4709 14.8998 21.4 14.7998 21.3L11.1998 17.7C10.9998 17.5 10.904 17.2667 10.9123 17C10.9206 16.7334 11.0248 16.5 11.2248 16.3C11.4248 16.1167 11.6581 16.0209 11.9248 16.0125C12.1915 16.0042 12.4248 16.1 12.6248 16.3L14.4998 18.175V12C14.4998 11.7167 14.5956 11.4792 14.7873 11.2875C14.979 11.0959 15.2165 11 15.4998 11C15.7831 11 16.0206 11.0959 16.2123 11.2875C16.404 11.4792 16.4998 11.7167 16.4998 12V18.175L18.3748 16.3C18.5581 16.1167 18.7873 16.025 19.0623 16.025C19.3373 16.025 19.5748 16.1167 19.7748 16.3C19.9748 16.5 20.0748 16.7375 20.0748 17.0125C20.0748 17.2875 19.9748 17.525 19.7748 17.725L16.1998 21.3C16.0998 21.4 15.9915 21.4709 15.8748 21.5125C15.7581 21.5542 15.6331 21.575 15.4998 21.575Z" fill="#C0C8C4"/>
</g>
</svg>
