<svg width="66" height="64" viewBox="0 0 66 64" fill="none" xmlns="http://www.w3.org/2000/svg">
<path fill-rule="evenodd" clip-rule="evenodd" d="M32.9017 0.653061C14.7079 0.653061 0 15.0204 0 32.7948C0 47.0028 9.42386 59.0295 22.4972 63.2862C24.1318 63.6062 24.7305 62.5946 24.7305 61.7437C24.7305 60.9985 24.6766 58.4444 24.6766 55.7832C15.5241 57.6993 13.6182 51.9517 13.6182 51.9517C12.1474 48.2266 9.96802 47.2692 9.96802 47.2692C6.97243 45.3002 10.1862 45.3002 10.1862 45.3002C13.5091 45.5131 15.2527 48.5995 15.2527 48.5995C18.1938 53.4949 22.933 52.1117 24.8396 51.2601C25.1117 49.1847 25.9838 47.7479 26.9098 46.9499C19.6101 46.2047 11.9298 43.4377 11.9298 31.0916C11.9298 27.5794 13.2364 24.706 15.3066 22.4712C14.98 21.6731 13.8358 18.3732 15.6339 13.9566C15.6339 13.9566 18.412 13.105 24.6759 17.2558C27.3577 16.5523 30.1234 16.1944 32.9017 16.1913C35.6797 16.1913 38.5117 16.5642 41.1268 17.2558C47.3914 13.105 50.1694 13.9566 50.1694 13.9566C51.9676 18.3732 50.8227 21.6731 50.4961 22.4712C52.6209 24.706 53.8735 27.5794 53.8735 31.0916C53.8735 43.4377 46.1933 46.1512 38.839 46.9499C40.0378 47.9608 41.0722 49.8762 41.0722 52.9097C41.0722 57.2199 41.0183 60.6792 41.0183 61.743C41.0183 62.5946 41.6177 63.6062 43.2516 63.2869C56.3249 59.0289 65.7488 47.0028 65.7488 32.7948C65.8027 15.0204 51.0409 0.653061 32.9017 0.653061Z" fill="#C0C8C4"/>
</svg>
