<svg width="558" height="201" viewBox="0 0 558 201" fill="none" xmlns="http://www.w3.org/2000/svg">
<g opacity="0.12">
<path fill-rule="evenodd" clip-rule="evenodd" d="M556.997 96.0003C556.948 98.6144 555.162 101.233 551.64 103.24L386.014 197.013C378.078 200.996 368.727 200.996 360.791 197.013L198.156 103.24C194.694 101.229 192.986 98.6144 193 96.0003H193V73.7146H207.857V83.2796L363.782 -5.00131C371.731 -8.99875 381.101 -8.99875 389.05 -5.00131L542.142 83.1486V73.7146H556.999V96.0003H556.997Z" fill="#FBFCFB"/>
<path d="M551.64 103.24L551.887 103.675L551.888 103.674L551.64 103.24ZM556.997 96.0003V95.5003H556.507L556.497 95.9908L556.997 96.0003ZM386.014 197.013L386.239 197.46L386.25 197.454L386.261 197.448L386.014 197.013ZM360.791 197.013L360.541 197.446L360.554 197.454L360.567 197.46L360.791 197.013ZM198.156 103.24L197.905 103.672L197.906 103.673L198.156 103.24ZM193 96.0003L193.5 96.0029L193.502 95.5003H193V96.0003ZM193 96.0003H192.5V96.5003H193V96.0003ZM193 73.7146V73.2146H192.5V73.7146H193ZM207.857 73.7146H208.357V73.2146H207.857V73.7146ZM207.857 83.2796H207.357V84.1373L208.103 83.7148L207.857 83.2796ZM363.782 -5.00131L363.557 -5.448L363.546 -5.44247L363.536 -5.43641L363.782 -5.00131ZM389.05 -5.00131L389.3 -5.43461L389.287 -5.44166L389.275 -5.448L389.05 -5.00131ZM542.142 83.1486L541.893 83.5819L542.642 84.0135V83.1486H542.142ZM542.142 73.7146V73.2146H541.642V73.7146H542.142ZM556.999 73.7146H557.499V73.2146H556.999V73.7146ZM556.999 96.0003V96.5003H557.499V96.0003H556.999ZM551.888 103.674C555.497 101.618 557.443 98.8643 557.497 96.0098L556.497 95.9908C556.453 98.3646 554.827 100.849 551.393 102.805L551.888 103.674ZM386.261 197.448L551.887 103.675L551.394 102.805L385.768 196.578L386.261 197.448ZM360.567 197.46C368.644 201.513 378.161 201.513 386.239 197.46L385.79 196.566C377.995 200.478 368.81 200.478 361.015 196.566L360.567 197.46ZM197.906 103.673L360.541 197.446L361.041 196.58L198.406 102.807L197.906 103.673ZM192.5 95.9977C192.485 98.8539 194.351 101.608 197.905 103.672L198.407 102.807C195.036 100.85 193.487 98.3749 193.5 96.0029L192.5 95.9977ZM193 96.5003H193V95.5003H193V96.5003ZM192.5 73.7146V96.0003H193.5V73.7146H192.5ZM207.857 73.2146H193V74.2146H207.857V73.2146ZM208.357 83.2796V73.7146H207.357V83.2796H208.357ZM363.536 -5.43641L207.61 82.8445L208.103 83.7148L364.028 -4.56621L363.536 -5.43641ZM389.275 -5.448C381.185 -9.51652 371.647 -9.51652 363.557 -5.448L364.007 -4.55462C371.814 -8.48098 381.018 -8.48098 388.825 -4.55462L389.275 -5.448ZM542.392 82.7153L389.3 -5.43461L388.801 -4.56801L541.893 83.5819L542.392 82.7153ZM542.642 83.1486V73.7146H541.642V83.1486H542.642ZM542.142 74.2146H556.999V73.2146H542.142V74.2146ZM556.499 73.7146V96.0003H557.499V73.7146H556.499ZM556.999 95.5003H556.997V96.5003H556.999V95.5003Z" fill="url(#paint0_linear_859_28336)"/>
<path d="M551.908 66.486C558.783 70.4602 558.694 76.935 551.64 80.9538L386.014 174.727C378.078 178.71 368.727 178.71 360.791 174.727L198.156 80.9538C191.236 76.935 191.325 70.5048 198.156 66.486L363.782 -27.2873C371.731 -31.2848 381.101 -31.2848 389.05 -27.2873L551.908 66.486Z" fill="#FBFCFB" stroke="url(#paint1_linear_859_28336)"/>
<path opacity="0.7" d="M501.958 73.7247L375.962 146.762L249.13 73.7247L375.127 0.716919L501.958 73.7247Z" fill="#FBFCFB"/>
<path d="M501.958 -15.4178L375.962 57.6198L249.13 -15.4178L375.127 -88.4255L501.958 -15.4178Z" fill="#FBFCFB" stroke="url(#paint2_linear_859_28336)"/>
<path d="M501.542 59.3432L375.545 132.351V57.701L501.959 -15.4177L501.542 59.3432Z" fill="#FBFCFB" stroke="url(#paint3_linear_859_28336)"/>
<path d="M375.545 132.351L248.713 59.3432L249.131 -15.4177L375.962 57.6198L375.545 132.351Z" fill="#FBFCFB" stroke="url(#paint4_linear_859_28336)"/>
<path d="M439.646 20.925L375.906 57.7976V-15.5464L439.857 -52.4751L439.646 20.925Z" fill="#FBFCFB"/>
<path d="M376.117 -15.5875L375.906 57.7976L311.744 20.925L311.955 -52.4751L376.117 -15.5875Z" fill="#FBFCFB"/>
<path d="M311.698 -96.4716V20.4846L375.949 57.2733L439.465 20.4846V-148.471" stroke="url(#paint5_linear_859_28336)" stroke-width="1.02041" stroke-linecap="round" stroke-linejoin="round" stroke-dasharray="3.27 3.27"/>
</g>
<g opacity="0.25">
<path fill-rule="evenodd" clip-rule="evenodd" d="M256.999 126.857C256.964 128.696 255.708 130.538 253.231 131.949L136.747 197.899C131.165 200.7 124.589 200.7 119.007 197.899L4.62644 131.949C2.19139 130.535 0.990407 128.696 1 126.857V111.184H11.449V117.911L121.111 55.823C126.701 53.0116 133.292 53.0116 138.882 55.823L246.551 117.818V111.184H256.999V126.76C257 126.772 257 126.785 256.999 126.798V126.857H256.999Z" fill="#FBFCFB"/>
<path d="M253.231 131.949L253.478 132.384L253.479 132.383L253.231 131.949ZM256.999 126.857V126.357H256.508L256.499 126.848L256.999 126.857ZM136.747 197.899L136.971 198.346L136.982 198.341L136.993 198.334L136.747 197.899ZM119.007 197.899L118.757 198.332L118.77 198.34L118.783 198.346L119.007 197.899ZM4.62644 131.949L4.37533 132.381L4.37669 132.382L4.62644 131.949ZM1 126.857L1.5 126.86V126.857H1ZM1 111.184V110.684H0.5V111.184H1ZM11.449 111.184H11.949V110.684H11.449V111.184ZM11.449 117.911H10.949V118.768L11.6953 118.346L11.449 117.911ZM121.111 55.823L120.886 55.3763L120.875 55.3819L120.865 55.3879L121.111 55.823ZM138.882 55.823L139.131 55.3897L139.119 55.3827L139.106 55.3763L138.882 55.823ZM246.551 117.818L246.301 118.252L247.051 118.683V117.818H246.551ZM246.551 111.184V110.684H246.051V111.184H246.551ZM256.999 111.184H257.5V110.684H256.999V111.184ZM256.999 126.76H256.499V126.762L256.999 126.76ZM256.999 126.798L256.499 126.795V126.798H256.999ZM256.999 126.857V127.357H257.5V126.857H256.999ZM253.479 132.383C256.043 130.922 257.459 128.946 257.499 126.867L256.499 126.848C256.469 128.446 255.373 130.153 252.984 131.514L253.479 132.383ZM136.993 198.334L253.478 132.384L252.985 131.514L136.5 197.464L136.993 198.334ZM118.783 198.346C124.506 201.218 131.248 201.218 136.971 198.346L136.523 197.452C131.082 200.182 124.672 200.182 119.232 197.452L118.783 198.346ZM4.37669 132.382L118.757 198.332L119.257 197.466L4.87619 131.516L4.37669 132.382ZM0.500007 126.855C0.48915 128.935 1.84894 130.914 4.37533 132.381L4.87755 131.516C2.53384 130.155 1.49166 128.456 1.49999 126.86L0.500007 126.855ZM0.5 111.184V126.857H1.5V111.184H0.5ZM11.449 110.684H1V111.684H11.449V110.684ZM11.949 117.911V111.184H10.949V117.911H11.949ZM120.865 55.3879L11.2026 117.476L11.6953 118.346L121.357 56.2581L120.865 55.3879ZM139.106 55.3763C133.375 52.4939 126.618 52.4939 120.886 55.3763L121.336 56.2697C126.784 53.5294 133.208 53.5294 138.657 56.2697L139.106 55.3763ZM246.8 117.385L139.131 55.3897L138.632 56.2563L246.301 118.252L246.8 117.385ZM247.051 117.818V111.184H246.051V117.818H247.051ZM246.551 111.684H256.999V110.684H246.551V111.684ZM256.499 111.184V126.76H257.5V111.184H256.499ZM257.499 126.8C257.5 126.786 257.5 126.771 257.499 126.757L256.499 126.762C256.5 126.773 256.5 126.784 256.499 126.795L257.499 126.8ZM256.499 126.798V126.857H257.5V126.798H256.499ZM256.999 126.357H256.999V127.357H256.999V126.357Z" fill="url(#paint6_linear_859_28336)"/>
<path d="M253.42 106.1C258.255 108.895 258.192 113.448 253.231 116.275L136.747 182.225C131.165 185.026 124.589 185.026 119.007 182.225L4.62644 116.275C-0.24016 113.448 -0.177365 108.926 4.62644 106.1L121.111 40.1492C126.701 37.3378 133.292 37.3378 138.882 40.1492L253.42 106.1Z" fill="#FBFCFB" stroke="url(#paint7_linear_859_28336)"/>
<path opacity="0.7" d="M218.288 111.191L129.675 162.558L40.4746 111.191L129.088 59.8445L218.288 111.191Z" fill="#FBFCFB"/>
<path d="M218.288 48.4971L129.675 99.8642L40.4746 48.4971L129.088 -2.84912L218.288 48.4971Z" fill="#FBFCFB" stroke="url(#paint8_linear_859_28336)"/>
<path d="M217.995 101.076L129.382 152.422V99.9213L218.289 48.4971L217.995 101.076Z" fill="#FBFCFB" stroke="url(#paint9_linear_859_28336)"/>
<path d="M129.384 152.422L40.1836 101.076L40.477 48.4971L129.677 99.8642L129.384 152.422Z" fill="#FBFCFB" stroke="url(#paint10_linear_859_28336)"/>
<path d="M174.614 22.4352L129.786 48.3782L84.6611 22.4352L129.489 -3.49719L174.614 22.4352Z" fill="#F3F7F4"/>
<path d="M174.465 74.0574L129.637 99.9898V48.4071L174.614 22.4353L174.465 74.0574Z" fill="#FBFCFB"/>
<path d="M129.785 48.3783L129.637 99.9898L84.5122 74.0574L84.6606 22.4353L129.785 48.3783Z" fill="#FBFCFB"/>
<path d="M84.48 -8.50749V73.7475L129.668 99.6209L174.338 73.7475V-45.0789" stroke="url(#paint11_linear_859_28336)" stroke-width="1.02041" stroke-linecap="round" stroke-linejoin="round" stroke-dasharray="3.27 3.27"/>
<path fill-rule="evenodd" clip-rule="evenodd" d="M84.5122 1.12127C87.9848 1.12127 90.7998 -1.68562 90.7998 -5.1481C90.7998 -8.61058 87.9848 -11.4175 84.5122 -11.4175C81.0397 -11.4175 78.2246 -8.61058 78.2246 -5.1481C78.2246 -1.68562 81.0397 1.12127 84.5122 1.12127Z" fill="#A7F6AD"/>
</g>
<defs>
<linearGradient id="paint0_linear_859_28336" x1="218.878" y1="-7.99939" x2="512.21" y2="-7.99939" gradientUnits="userSpaceOnUse">
<stop stop-color="#6EE17F"/>
<stop offset="0.44" stop-color="#A546E4"/>
<stop offset="0.95" stop-color="#4D7DF6"/>
</linearGradient>
<linearGradient id="paint1_linear_859_28336" x1="218.878" y1="-30.2854" x2="512.21" y2="-30.2854" gradientUnits="userSpaceOnUse">
<stop stop-color="#6EE17F"/>
<stop offset="0.44" stop-color="#A546E4"/>
<stop offset="0.95" stop-color="#4D7DF6"/>
</linearGradient>
<linearGradient id="paint2_linear_859_28336" x1="267.105" y1="-88.4255" x2="470.849" y2="-88.4255" gradientUnits="userSpaceOnUse">
<stop stop-color="#6EE17F"/>
<stop offset="0.44" stop-color="#A546E4"/>
<stop offset="0.95" stop-color="#4D7DF6"/>
</linearGradient>
<linearGradient id="paint3_linear_859_28336" x1="384.532" y1="-15.4177" x2="486.404" y2="-15.4177" gradientUnits="userSpaceOnUse">
<stop stop-color="#6EE17F"/>
<stop offset="0.44" stop-color="#A546E4"/>
<stop offset="0.95" stop-color="#4D7DF6"/>
</linearGradient>
<linearGradient id="paint4_linear_859_28336" x1="257.76" y1="-15.4177" x2="360.304" y2="-15.4177" gradientUnits="userSpaceOnUse">
<stop stop-color="#6EE17F"/>
<stop offset="0.44" stop-color="#A546E4"/>
<stop offset="0.95" stop-color="#4D7DF6"/>
</linearGradient>
<linearGradient id="paint5_linear_859_28336" x1="320.782" y1="-148.471" x2="423.743" y2="-148.471" gradientUnits="userSpaceOnUse">
<stop stop-color="#6EE17F"/>
<stop offset="0.44" stop-color="#A546E4"/>
<stop offset="0.95" stop-color="#4D7DF6"/>
</linearGradient>
<linearGradient id="paint6_linear_859_28336" x1="19.2" y1="53.7145" x2="225.5" y2="53.7145" gradientUnits="userSpaceOnUse">
<stop stop-color="#6EE17F"/>
<stop offset="0.44" stop-color="#A546E4"/>
<stop offset="0.95" stop-color="#4D7DF6"/>
</linearGradient>
<linearGradient id="paint7_linear_859_28336" x1="19.2" y1="38.0406" x2="225.5" y2="38.0406" gradientUnits="userSpaceOnUse">
<stop stop-color="#6EE17F"/>
<stop offset="0.44" stop-color="#A546E4"/>
<stop offset="0.95" stop-color="#4D7DF6"/>
</linearGradient>
<linearGradient id="paint8_linear_859_28336" x1="53.116" y1="-2.84912" x2="196.409" y2="-2.84912" gradientUnits="userSpaceOnUse">
<stop stop-color="#6EE17F"/>
<stop offset="0.44" stop-color="#A546E4"/>
<stop offset="0.95" stop-color="#4D7DF6"/>
</linearGradient>
<linearGradient id="paint9_linear_859_28336" x1="135.703" y1="48.4971" x2="207.349" y2="48.4971" gradientUnits="userSpaceOnUse">
<stop stop-color="#6EE17F"/>
<stop offset="0.44" stop-color="#A546E4"/>
<stop offset="0.95" stop-color="#4D7DF6"/>
</linearGradient>
<linearGradient id="paint10_linear_859_28336" x1="46.546" y1="48.4971" x2="118.665" y2="48.4971" gradientUnits="userSpaceOnUse">
<stop stop-color="#6EE17F"/>
<stop offset="0.44" stop-color="#A546E4"/>
<stop offset="0.95" stop-color="#4D7DF6"/>
</linearGradient>
<linearGradient id="paint11_linear_859_28336" x1="90.8683" y1="-45.0789" x2="163.281" y2="-45.0789" gradientUnits="userSpaceOnUse">
<stop stop-color="#6EE17F"/>
<stop offset="0.44" stop-color="#A546E4"/>
<stop offset="0.95" stop-color="#4D7DF6"/>
</linearGradient>
</defs>
</svg>
