<svg width="101" height="32" viewBox="0 0 101 32" fill="none" xmlns="http://www.w3.org/2000/svg">
<path d="M14.3681 30C12.9852 30 11.6355 29.7226 10.3565 29.176C7.87612 28.1156 5.96195 26.1638 4.9667 23.6802L4.9663 23.6792C3.97086 21.1946 4.01422 18.4756 5.08839 16.0232C5.69261 14.6436 6.61632 13.401 7.76422 12.4224C7.70088 10.9256 7.98541 9.4094 8.58963 8.0296C10.1941 4.3668 13.8402 2 17.8787 2C19.2606 2 20.6095 2.277 21.8877 2.823C21.8885 2.8234 21.8903 2.824 21.8903 2.824C24.3707 3.8844 26.2847 5.8362 27.2801 8.3198C28.276 10.8048 28.2328 13.524 27.1584 15.9768C26.5542 17.3564 25.6303 18.599 24.4826 19.5776C24.5461 21.0744 24.2616 22.5906 23.6572 23.9704C22.0525 27.6332 18.4064 30 14.3681 30ZM8.39582 15.496C8.02817 15.9722 7.71927 16.494 7.4749 17.0522C6.68526 18.8552 6.64989 20.8588 7.3758 22.6938C8.11149 24.5538 9.53572 26.0138 11.3864 26.805C12.3378 27.2118 13.3413 27.418 14.3689 27.418C17.3702 27.418 20.0792 25.6612 21.2707 22.9422L21.2711 22.9414C21.5138 22.3872 21.6867 21.8116 21.7868 21.225C20.5492 21.737 19.2039 22.006 17.8687 22.006C16.4863 22.006 15.137 21.7288 13.8584 21.1822C12.3738 20.5474 11.0523 19.561 10.037 18.3296C9.34591 17.4922 8.78365 16.52 8.39582 15.496ZM10.538 13.6158C11.0601 15.9316 12.6751 17.8656 14.8876 18.8116C15.8389 19.2184 16.8423 19.4246 17.8695 19.4246C19.2226 19.4246 20.5462 19.0654 21.7089 18.3846C21.1866 16.0688 19.5715 14.1348 17.3592 13.1888C16.4079 12.782 15.4047 12.5758 14.3773 12.5758C13.0242 12.5756 11.7006 12.9348 10.538 13.6158ZM14.3785 9.9938C15.761 9.9938 17.1103 10.271 18.389 10.8176C19.8736 11.4522 21.195 12.4386 22.2104 13.6702C22.9009 14.5078 23.4632 15.4798 23.8512 16.504C24.2189 16.0276 24.5278 15.5058 24.7721 14.9478C25.5682 13.1302 25.6003 11.115 24.8624 9.2738C24.1239 7.431 22.7029 5.9826 20.8609 5.195C19.9094 4.7882 18.9059 4.582 17.8783 4.582C14.8766 4.582 12.1674 6.3392 10.9763 9.0586C10.7336 9.6128 10.5607 10.1882 10.4606 10.775C11.6983 10.263 13.0434 9.9938 14.3785 9.9938Z" fill="#A7F6AD"/>
<path d="M37.3343 8H37.4369C37.9096 8 38.3015 8.23326 38.6127 8.69987C38.7184 8.91142 38.7713 9.11361 38.7713 9.30624V22.6493C38.7713 23.2093 38.4821 23.623 37.9035 23.8903C37.7728 23.9341 37.6826 23.9556 37.6329 23.9556H37.1384C36.9145 23.9556 36.6469 23.8127 36.3359 23.5263C36.1119 23.2652 36 22.9604 36 22.6119V9.35303C36 8.76836 36.2986 8.34217 36.8957 8.07467C37.0575 8.02499 37.2037 8 37.3343 8Z" fill="#F3F7F4"/>
<path d="M45.2596 10.7717H45.3273C45.5456 10.7717 45.7641 10.7107 45.9827 10.5886C46.426 10.2932 46.6477 9.91382 46.6477 9.45132V9.40299C46.6477 9.17807 46.5865 8.95973 46.4647 8.74766C46.1689 8.29782 45.7769 8.073 45.2885 8.073C45.1152 8.073 44.9225 8.11805 44.7103 8.20793C44.1964 8.50351 43.9392 8.90851 43.9392 9.42232C43.9392 9.57021 43.9746 9.7469 44.0453 9.95259C44.3345 10.4987 44.7393 10.7717 45.2596 10.7717Z" fill="#F3F7F4"/>
<path d="M55.6143 10.3888C55.9378 10.0528 56.0996 9.71072 56.0996 9.36239V9.30634C56.0996 9.10106 56.0466 8.90206 55.941 8.70912C55.6547 8.23644 55.2628 8 54.7652 8C54.6471 8 54.4884 8.02788 54.2894 8.08393C54.0343 8.17114 53.7233 8.46651 53.3563 8.97035C50.1589 13.0697 46.8433 17.3215 43.4096 21.7255C43.1607 21.9995 43.0364 22.3134 43.0364 22.668C43.0364 22.6686 43.0364 22.6692 43.0364 22.6698C43.0364 22.6704 43.0364 22.671 43.0364 22.6715C43.0364 22.6789 43.0374 22.6862 43.0374 22.6936C43.0381 22.7231 43.0392 22.7526 43.0419 22.7817C43.0823 23.2639 43.3844 23.6709 43.8061 23.8614C43.9005 23.9098 43.9907 23.9397 44.0767 23.9499C44.1624 23.9678 44.2512 23.9773 44.3422 23.9773C44.4211 23.9773 44.4981 23.969 44.5731 23.9556H44.5946C44.8123 23.9556 45.0674 23.819 45.3597 23.5452C47.9413 20.2422 49.3408 18.4443 49.5587 18.1519L51.1355 20.158C52.8275 22.3353 53.7326 23.4862 53.8508 23.6105C53.8796 23.6348 53.9076 23.6569 53.9355 23.6786C53.991 23.7252 54.0508 23.7665 54.1134 23.8036C54.2488 23.8879 54.3709 23.9376 54.4794 23.951C54.5767 23.974 54.6778 23.9876 54.7823 23.9876C55.3071 23.9876 55.7589 23.6796 55.9708 23.2355C56.0164 23.1446 56.0492 23.0481 56.0699 22.9466C56.0716 22.9392 56.073 22.9317 56.0744 22.9245C56.0808 22.8903 56.0867 22.856 56.0903 22.8204C56.0946 22.782 56.0968 22.7428 56.0978 22.7036C56.098 22.6946 56.0996 22.6864 56.0996 22.6773V22.6213C56.0996 22.4035 56.0404 22.192 55.9222 21.9867C55.8041 21.825 54.2488 19.8282 51.2569 15.9963V15.9869L55.6143 10.3888Z" fill="#F3F7F4"/>
<path d="M61.7505 23.9943C62.1332 23.9943 62.4796 23.839 62.7301 23.5882C62.9986 23.3425 63.1363 23.0306 63.1363 22.6493V9.30623C63.1363 9.1136 63.0833 8.91131 62.9776 8.69986C62.6666 8.23325 62.2746 8 61.8019 8H61.6993C61.5686 8 61.4224 8.02489 61.2608 8.07467C60.6636 8.34217 60.365 8.76836 60.365 9.35303V22.6121C60.365 22.9606 60.477 23.2654 60.7009 23.5265C60.7241 23.548 60.7464 23.5669 60.769 23.5866C60.8959 23.7139 61.0473 23.8167 61.2156 23.8873C61.2562 23.9052 61.2958 23.9198 61.334 23.9307C61.4655 23.9718 61.6054 23.9943 61.7505 23.9943Z" fill="#F3F7F4"/>
<path d="M80.194 15.9406C80.1628 15.841 78.9624 13.4367 76.5923 8.72773C76.2751 8.24251 75.8739 8 75.3887 8H75.2767C74.8536 8 74.4774 8.20209 74.1476 8.60637C74.0916 8.68731 73.7029 9.45546 72.9813 10.9111C69.6842 17.4799 68.0358 20.7738 68.0358 20.7925C67.8596 21.1164 67.7225 21.3945 67.6196 21.6319C67.4879 21.8441 67.4094 22.0919 67.4031 22.3583C67.403 22.3648 67.4014 22.3726 67.4014 22.3788C67.4014 22.3811 67.4017 22.3836 67.4019 22.3859C67.4017 22.3883 67.4014 22.3904 67.4014 22.3927C67.4014 22.7537 67.5347 23.0829 67.7537 23.3362C67.784 23.3722 67.8153 23.4077 67.8494 23.4425C67.8663 23.4566 67.8829 23.469 67.8999 23.4827C67.9744 23.5474 68.0556 23.6052 68.1426 23.6538C68.3066 23.7529 68.4559 23.8059 68.5904 23.8133C68.6736 23.8282 68.7587 23.8372 68.8459 23.8372C68.9281 23.8372 69.0079 23.8288 69.0864 23.8155H69.1184C69.1556 23.8155 69.1992 23.8094 69.249 23.7968C69.6098 23.6789 69.8835 23.4798 70.0701 23.1998L74.8474 13.7476C74.9719 13.3993 75.1335 13.225 75.3328 13.225C75.4384 13.225 75.5349 13.2686 75.6221 13.3558C76.9097 15.9374 77.5721 17.2561 77.6095 17.312C77.9391 17.7537 78.3466 17.9744 78.8319 17.9744C79.0558 17.9744 79.2828 17.9186 79.5129 17.8065C80.0543 17.4893 80.3249 17.0508 80.3249 16.491C80.3247 16.4291 80.2811 16.2453 80.194 15.9406Z" fill="#F3F7F4"/>
<path d="M81.8176 23.8374C82.6154 23.8374 83.2622 23.1906 83.2622 22.3928C83.2622 21.595 82.6154 20.9482 81.8176 20.9482C81.0198 20.9482 80.373 21.595 80.373 22.3928C80.373 23.1906 81.0198 23.8374 81.8176 23.8374Z" fill="#A7F6AD"/>
<path fill-rule="evenodd" clip-rule="evenodd" d="M87.5318 9.44293V22.6659C87.5318 23.4021 88.1285 23.9988 88.8647 23.9988C89.6008 23.9988 90.1975 23.4021 90.1975 22.6659V13.4411L97.4698 23.4505C97.7513 23.8379 98.2024 24.0292 98.6473 23.9964C98.674 23.998 98.7008 23.9988 98.7279 23.9988C99.464 23.9988 100.061 23.4021 100.061 22.6659V9.33723C100.061 8.6011 99.464 8.00436 98.7279 8.00436C97.9918 8.00436 97.395 8.6011 97.395 9.33723V18.8124L89.9748 8.59928C89.9292 8.5309 89.8775 8.46696 89.8205 8.40826C89.3665 7.93568 88.622 7.85861 88.0769 8.25465C87.6863 8.53841 87.4951 8.99456 87.5318 9.44293Z" fill="#F3F7F4"/>
</svg>
