<svg width="19" height="19" viewBox="0 0 19 19" fill="none" xmlns="http://www.w3.org/2000/svg">
<path d="M8 19C5.76667 19 3.875 18.225 2.325 16.675C0.775 15.125 0 13.2333 0 11C0 10.0333 0.158333 9.1125 0.475 8.2375C0.791667 7.3625 1.23333 6.57917 1.8 5.8875C2.36667 5.19583 3.04583 4.62083 3.8375 4.1625C4.62917 3.70417 5.49167 3.41667 6.425 3.3C6.84167 3.25 7.16667 3.39583 7.4 3.7375C7.63333 4.07917 7.64167 4.43333 7.425 4.8C7.225 5.13333 7.10417 5.4875 7.0625 5.8625C7.02083 6.2375 7 6.61667 7 7C7 8.66667 7.58333 10.0833 8.75 11.25C9.91667 12.4167 11.3333 13 13 13C13.2 13 13.4 12.9958 13.6 12.9875C13.8 12.9792 14 12.9417 14.2 12.875C14.55 12.7417 14.8625 12.8042 15.1375 13.0625C15.4125 13.3208 15.4917 13.625 15.375 13.975C14.8917 15.5417 13.9583 16.7708 12.575 17.6625C11.1917 18.5542 9.66667 19 8 19ZM13.4 7L12.9 8.4C12.8333 8.58333 12.725 8.72917 12.575 8.8375C12.425 8.94583 12.2583 9 12.075 9C11.7583 9 11.5125 8.87083 11.3375 8.6125C11.1625 8.35417 11.125 8.08333 11.225 7.8L13.775 0.625C13.8417 0.441667 13.9583 0.291667 14.125 0.175C14.2917 0.0583333 14.475 0 14.675 0H15.325C15.525 0 15.7083 0.0583333 15.875 0.175C16.0417 0.291667 16.1583 0.441667 16.225 0.625L18.775 7.8C18.875 8.08333 18.8375 8.35417 18.6625 8.6125C18.4875 8.87083 18.2417 9 17.925 9C17.7417 9 17.575 8.94583 17.425 8.8375C17.275 8.72917 17.1667 8.58333 17.1 8.4L16.6 7H13.4ZM13.85 5.65H16.15L15 2L13.85 5.65Z" fill="#F3F7F4"/>
</svg>
