<svg width="153" height="48" viewBox="0 0 153 48" fill="none" xmlns="http://www.w3.org/2000/svg">
<g clip-path="url(#clip0_1726_50545)">
<path d="M63.5079 16.7044C63.5079 16.369 63.8098 16.0671 64.1452 16.0671H64.7826C65.0845 16.0671 65.2522 16.2013 65.3193 16.4696L65.6211 17.4759C65.6211 17.4759 67.4995 15.7317 70.2165 15.7317C74.0069 15.7317 75.2815 18.2139 75.2815 21.6353V28.5451C75.2815 28.8805 74.9796 29.1824 74.6442 29.1824H73.6044C73.2689 29.1824 72.9671 28.8805 72.9671 28.5451V21.6353C72.9671 19.1531 71.8601 17.9455 70.0153 17.9455C67.5666 17.9455 65.7889 19.8239 65.7889 19.8239V28.5787C65.7889 28.9141 65.487 29.216 65.1515 29.216H64.1452C63.8098 29.216 63.5079 28.9141 63.5079 28.5787V16.7044Z" fill="#1D251D"/>
<path d="M85.3109 15.7317C88.9336 15.7317 91.8183 18.8847 91.8183 22.5745C91.8183 26.3313 88.9336 29.4843 85.3109 29.4843C81.6883 29.4843 78.8036 26.3313 78.8036 22.5745C78.8036 18.8847 81.6883 15.7317 85.3109 15.7317ZM85.3109 27.3711C87.6925 27.3711 89.5709 25.2244 89.5709 22.5745C89.5709 19.9916 87.6925 17.8784 85.3109 17.8784C82.9294 17.8784 81.051 19.9916 81.051 22.5745C81.051 25.2579 82.9294 27.3711 85.3109 27.3711Z" fill="#1D251D"/>
<path d="M95.5414 16.7044C95.5414 16.369 95.8433 16.0671 96.1787 16.0671H96.816C97.1179 16.0671 97.2856 16.2013 97.3527 16.4696L97.6546 17.4759C97.6546 17.4759 99.533 15.7317 102.25 15.7317C106.04 15.7317 107.315 18.2139 107.315 21.6353V28.5451C107.315 28.8805 107.013 29.1824 106.678 29.1824H105.638C105.302 29.1824 105.001 28.8805 105.001 28.5451V21.6353C105.001 19.1531 103.894 17.9455 102.049 17.9455C99.6001 17.9455 97.8223 19.8239 97.8223 19.8239V28.5787C97.8223 28.9141 97.5204 29.216 97.185 29.216H96.1787C95.8433 29.216 95.5414 28.9141 95.5414 28.5787V16.7044Z" fill="#1D251D"/>
<path d="M111.81 6.87633C111.81 6.5409 112.111 6.23901 112.447 6.23901H113.453C113.789 6.23901 114.09 6.5409 114.09 6.87633V21.065L119.659 16.4696C119.927 16.2348 120.195 16.0671 120.43 16.0671H122.208C122.778 16.0671 122.745 16.7044 122.51 16.8721L116.271 21.87L123.516 28.3438C123.784 28.5786 123.751 29.1489 123.181 29.1489H121.369C121.067 29.1489 120.833 28.9812 120.698 28.8805L114.057 22.5409V28.5115C114.057 28.847 113.755 29.1489 113.42 29.1489H112.413C112.078 29.1489 111.776 28.847 111.776 28.5115V6.87633H111.81Z" fill="#1D251D"/>
<path d="M124.589 16.805C124.388 16.3689 124.589 16.1006 125.093 16.1006H126.535C126.803 16.1006 127.005 16.2683 127.105 16.4696L131.969 26.4989H132.002L136.598 16.4696C136.698 16.2683 136.933 16.1006 137.168 16.1006H138.409C138.912 16.1006 139.114 16.436 138.912 16.8385L128.849 38.6415C128.749 38.8427 128.514 39.044 128.279 39.044H127.072C126.568 39.044 126.334 38.675 126.535 38.239L130.728 29.1823L124.589 16.805Z" fill="#1D251D"/>
<path d="M147.5 15.7317C149.479 15.7317 151.022 16.5032 152.196 18.0126C152.431 18.3145 152.364 18.717 152.062 18.9183L151.424 19.455C150.921 19.9246 150.754 19.5891 150.485 19.3208C149.814 18.5828 148.741 17.9455 147.466 17.9455C145.018 17.9455 143.106 19.9916 143.106 22.608C143.106 25.2244 144.984 27.3376 147.433 27.3376C149.412 27.3376 150.15 26.3648 150.921 25.6269C151.324 25.2244 151.559 25.2914 151.894 25.5598L152.263 25.8281C152.598 26.0629 152.699 26.4319 152.498 26.7338C151.525 28.3103 149.714 29.4843 147.5 29.4843C143.877 29.4843 140.791 26.5661 140.791 22.6415C140.724 18.7841 143.911 15.7317 147.5 15.7317Z" fill="#1D251D"/>
<path d="M24.8678 26.566C26.2943 26.566 27.4507 25.4096 27.4507 23.9832C27.4507 22.5568 26.2943 21.4004 24.8678 21.4004C23.4414 21.4004 22.285 22.5568 22.285 23.9832C22.285 25.4096 23.4414 26.566 24.8678 26.566Z" fill="#1D251D"/>
<path d="M24.8668 36.629C25.5893 36.629 26.175 36.0434 26.175 35.3209C26.175 34.5984 25.5893 34.0127 24.8668 34.0127C24.1443 34.0127 23.5587 34.5984 23.5587 35.3209C23.5587 36.0434 24.1443 36.629 24.8668 36.629Z" fill="#1D251D"/>
<path d="M24.8668 47.9999C25.5893 47.9999 26.175 47.4142 26.175 46.6917C26.175 45.9692 25.5893 45.3835 24.8668 45.3835C24.1443 45.3835 23.5587 45.9692 23.5587 46.6917C23.5587 47.4142 24.1443 47.9999 24.8668 47.9999Z" fill="#1D251D"/>
<path d="M24.8668 13.954C25.5893 13.954 26.175 13.3683 26.175 12.6458C26.175 11.9233 25.5893 11.3376 24.8668 11.3376C24.1443 11.3376 23.5587 11.9233 23.5587 12.6458C23.5587 13.3683 24.1443 13.954 24.8668 13.954Z" fill="#1D251D"/>
<path d="M24.8668 2.61635C25.5893 2.61635 26.175 2.03066 26.175 1.30818C26.175 0.58569 25.5893 0 24.8668 0C24.1443 0 23.5587 0.58569 23.5587 1.30818C23.5587 2.03066 24.1443 2.61635 24.8668 2.61635Z" fill="#1D251D"/>
<path d="M13.5303 37.9037C14.9568 37.9037 16.1131 36.7473 16.1131 35.3208C16.1131 33.8944 14.9568 32.738 13.5303 32.738C12.1039 32.738 10.9475 33.8944 10.9475 35.3208C10.9475 36.7473 12.1039 37.9037 13.5303 37.9037Z" fill="#1D251D"/>
<path d="M13.5303 15.2286C14.9568 15.2286 16.1131 14.0722 16.1131 12.6458C16.1131 11.2194 14.9568 10.063 13.5303 10.063C12.1039 10.063 10.9475 11.2194 10.9475 12.6458C10.9475 14.0722 12.1039 15.2286 13.5303 15.2286Z" fill="#1D251D"/>
<path d="M36.2391 37.9037C37.6655 37.9037 38.8219 36.7473 38.8219 35.3208C38.8219 33.8944 37.6655 32.738 36.2391 32.738C34.8126 32.738 33.6562 33.8944 33.6562 35.3208C33.6562 36.7473 34.8126 37.9037 36.2391 37.9037Z" fill="#1D251D"/>
<path d="M36.2391 15.2286C37.6655 15.2286 38.8219 14.0722 38.8219 12.6458C38.8219 11.2194 37.6655 10.063 36.2391 10.063C34.8126 10.063 33.6562 11.2194 33.6562 12.6458C33.6562 14.0722 34.8126 15.2286 36.2391 15.2286Z" fill="#1D251D"/>
<path d="M13.5303 26.566C14.9568 26.566 16.1131 25.4096 16.1131 23.9832C16.1131 22.5568 14.9568 21.4004 13.5303 21.4004C12.1039 21.4004 10.9475 22.5568 10.9475 23.9832C10.9475 25.4096 12.1039 26.566 13.5303 26.566Z" fill="#1D251D"/>
<path d="M2.05818 25.2914C2.78066 25.2914 3.36635 24.7057 3.36635 23.9832C3.36635 23.2607 2.78066 22.675 2.05818 22.675C1.33569 22.675 0.75 23.2607 0.75 23.9832C0.75 24.7057 1.33569 25.2914 2.05818 25.2914Z" fill="#1D251D"/>
<path d="M36.2391 26.566C37.6655 26.566 38.8219 25.4096 38.8219 23.9832C38.8219 22.5568 37.6655 21.4004 36.2391 21.4004C34.8126 21.4004 33.6562 22.5568 33.6562 23.9832C33.6562 25.4096 34.8126 26.566 36.2391 26.566Z" fill="#1D251D"/>
<path d="M47.5756 25.2914C48.2981 25.2914 48.8837 24.7057 48.8837 23.9832C48.8837 23.2607 48.2981 22.675 47.5756 22.675C46.8531 22.675 46.2674 23.2607 46.2674 23.9832C46.2674 24.7057 46.8531 25.2914 47.5756 25.2914Z" fill="#1D251D"/>
</g>
<defs>
<clipPath id="clip0_1726_50545">
<rect width="152" height="48" fill="white" transform="translate(0.75)"/>
</clipPath>
</defs>
</svg>
