<svg width="168" height="40" viewBox="0 0 168 40" fill="none" xmlns="http://www.w3.org/2000/svg">
<g clip-path="url(#clip0_1726_50544)">
<path d="M0.770113 0.0930832C0.830543 0.278275 11.0734 13.468 11.1338 13.4474C11.3151 13.3857 13.5108 10.5358 13.4403 10.4432C13.4 10.3815 12.2719 8.89995 10.9425 7.14063C9.60295 5.37103 8.50515 3.89979 8.50515 3.86892C8.50515 3.83805 9.54252 3.80719 10.8216 3.80719H13.128L15.2935 6.55419L17.4588 9.31148L17.1265 9.72301C15.6358 11.5852 0.749969 30.6701 0.749969 30.7113C0.749969 30.7422 3.96283 30.7628 7.8807 30.7628H15.0115L16.6632 28.6639C17.5696 27.5219 18.2948 26.5342 18.2848 26.4828C18.2445 26.3594 16.0186 23.5712 15.9581 23.5712C15.928 23.5712 15.2834 24.3325 14.5179 25.2688L13.128 26.956H10.8116C9.39145 26.956 8.50515 26.9149 8.52528 26.8635C8.54542 26.8017 11.4763 22.9951 15.0517 18.4064C18.6271 13.8075 21.6688 9.86705 21.83 9.66128L22.1019 9.28061L18.5567 4.64056L15.0013 0.000488281H7.87063C3.72111 0.000488281 0.749969 0.0416427 0.770113 0.0930832Z" fill="#1D251D"/>
<path d="M23.1298 2.07875C22.1888 3.23104 21.4255 4.20844 21.4255 4.24959C21.4359 4.35247 23.7781 7.19207 23.8513 7.19207C23.8827 7.19207 24.5518 6.43072 25.3464 5.49448L26.7894 3.80719H29.1943C30.6791 3.80719 31.5887 3.84835 31.5678 3.91007C31.5574 3.96151 28.3892 7.94312 24.531 12.7581C20.6831 17.5731 17.5254 21.5546 17.5254 21.6061C17.5254 21.6473 19.167 23.7255 21.185 26.2256L24.8446 30.7628H32.2474C36.5553 30.7628 39.6399 30.7216 39.6189 30.6701C39.5562 30.485 28.9224 17.2953 28.8597 17.3158C28.6715 17.3776 26.3921 20.2275 26.4652 20.32C26.5071 20.3715 27.6782 21.8633 29.0583 23.6226C30.449 25.3922 31.5887 26.8635 31.5887 26.8943C31.5887 26.9252 30.5118 26.956 29.1943 26.956H26.7894L24.5937 24.3325C23.3808 22.8921 22.3874 21.6575 22.3874 21.5958C22.3874 21.5443 26.2666 16.6779 31.0136 10.8033C35.7607 4.91833 39.6399 0.0827946 39.6399 0.0519313C39.6399 0.0210655 36.3044 0.000488281 32.237 0.000488281H24.8342L23.1298 2.07875Z" fill="#1D251D"/>
<path d="M154.237 6.27563C154.802 6.27563 155.468 6.51057 155.835 7.14824L159.694 14.3975L163.654 7.14824C163.987 6.51057 164.586 6.27563 165.152 6.27563C166.118 6.27563 167.082 6.98042 167.082 8.12152C167.082 8.42356 167.015 8.79274 166.816 9.12835L161.791 18.0556L167.515 28.124C167.714 28.4597 167.748 28.7953 167.748 29.1309C167.748 30.2385 166.749 31.0439 165.785 31.0439C165.185 31.0439 164.553 30.7418 164.154 30.0035L159.694 21.7138L155.235 30.0035C154.836 30.7418 154.27 31.0439 153.605 31.0439C152.64 31.0439 151.641 30.2385 151.641 29.1309C151.641 28.7953 151.708 28.4933 151.907 28.124L157.565 18.1564L152.573 9.12835C152.407 8.8263 152.307 8.49069 152.307 8.18864C152.307 7.01399 153.239 6.27563 154.237 6.27563Z" fill="#1D251D"/>
<path d="M141.587 11.7136C146.945 11.7136 151.371 16.1101 151.371 21.2115C151.371 22.5204 150.672 23.1916 149.475 23.1916H135.964C136.429 25.7088 138.992 27.5881 141.587 27.5881C143.219 27.5881 144.616 26.984 145.681 25.9101C146.113 25.5074 146.679 25.2389 147.179 25.2389C148.177 25.2389 148.975 26.1115 148.975 27.1518C148.975 27.6889 148.876 28.1923 148.476 28.595C146.746 30.508 144.317 31.4477 141.587 31.4477C136.196 31.4477 131.804 27.0512 131.804 21.6143C131.804 16.1773 136.196 11.7136 141.587 11.7136ZM141.587 15.5732C138.992 15.5732 136.529 17.5197 135.997 20.0033H147.179C146.712 17.4863 144.15 15.5732 141.587 15.5732Z" fill="#1D251D"/>
<path d="M119.718 11.7136C122.081 11.7136 124.344 12.989 125.542 14.3314C125.641 12.8548 126.207 12.1499 127.604 12.1499C128.536 12.1499 129.236 12.8212 129.236 13.828V29.6354C129.236 34.5354 126.374 39.4689 119.451 39.4689C118.087 39.4689 117.388 38.7306 117.388 37.5224C117.388 36.3477 118.121 35.5757 119.319 35.5757C123.977 35.5757 125.341 32.6559 125.341 29.0649C124.21 30.5751 122.313 31.4477 119.718 31.4477C114.626 31.4477 109.934 27.0176 109.934 21.5807C109.934 16.1437 114.626 11.7136 119.718 11.7136ZM119.718 27.5881C122.946 27.5881 125.375 24.9033 125.375 21.5807C125.375 18.2581 122.946 15.5732 119.718 15.5732C116.39 15.5732 113.761 18.2581 113.761 21.5807C113.761 24.9033 116.39 27.5881 119.718 27.5881Z" fill="#1D251D"/>
<path d="M97.8458 11.7136C100.209 11.7136 102.472 12.989 103.67 14.3314C103.769 12.8548 104.335 12.1499 105.732 12.1499C106.664 12.1499 107.364 12.8212 107.364 13.828V29.6354C107.364 34.5354 104.502 39.4689 97.5797 39.4689C96.2152 39.4689 95.5164 38.7306 95.5164 37.5224C95.5164 36.3477 96.2485 35.5757 97.4465 35.5757C102.105 35.5757 103.47 32.6559 103.47 29.0649C102.338 30.5751 100.442 31.4477 97.8458 31.4477C92.7543 31.4477 88.062 27.0176 88.062 21.5807C88.062 16.1437 92.7543 11.7136 97.8458 11.7136ZM97.8458 27.5881C101.074 27.5881 103.503 24.9033 103.503 21.5807C103.503 18.2581 101.074 15.5732 97.8458 15.5732C94.5181 15.5732 91.8891 18.2581 91.8891 21.5807C91.8891 24.9033 94.5181 27.5881 97.8458 27.5881Z" fill="#1D251D"/>
<path d="M76.3328 11.7136C81.6906 11.7136 86.1166 16.1101 86.1166 21.2115C86.1166 22.5204 85.4177 23.1916 84.2197 23.1916H70.7088C71.1747 25.7088 73.7371 27.5881 76.3328 27.5881C77.9635 27.5881 79.3611 26.984 80.426 25.9101C80.8586 25.5074 81.4243 25.2389 81.9236 25.2389C82.9219 25.2389 83.7206 26.1115 83.7206 27.1518C83.7206 27.6889 83.6207 28.1923 83.2214 28.595C81.4909 30.508 79.0616 31.4477 76.3328 31.4477C70.9417 31.4477 66.549 27.0512 66.549 21.6143C66.549 16.1773 70.9417 11.7136 76.3328 11.7136ZM76.3328 15.5732C73.7371 15.5732 71.2745 17.5197 70.7421 20.0033H81.9236C81.4576 17.4863 78.8952 15.5732 76.3328 15.5732Z" fill="#1D251D"/>
<path d="M52.1634 6.27563C52.7291 6.27563 53.3947 6.51057 53.7608 7.14824L57.621 14.3975L61.5812 7.14824C61.9139 6.51057 62.5129 6.27563 63.0786 6.27563C64.0437 6.27563 65.0087 6.98042 65.0087 8.12152C65.0087 8.42356 64.9423 8.79274 64.7426 9.12835L59.7176 18.0556L65.4414 28.124C65.6411 28.4597 65.6743 28.7953 65.6743 29.1309C65.6743 30.2385 64.676 31.0439 63.7109 31.0439C63.1119 31.0439 62.4796 30.7418 62.0803 30.0035L57.621 21.7138L53.1618 30.0035C52.7624 30.7418 52.1967 31.0439 51.5311 31.0439C50.5661 31.0439 49.5677 30.2385 49.5677 29.1309C49.5677 28.7953 49.6343 28.4933 49.834 28.124L55.4912 18.1564L50.4995 9.12835C50.3331 8.8263 50.2333 8.49069 50.2333 8.18864C50.2333 7.01399 51.1651 6.27563 52.1634 6.27563Z" fill="#1D251D"/>
</g>
<defs>
<clipPath id="clip0_1726_50544">
<rect width="167" height="40" fill="white" transform="translate(0.749969)"/>
</clipPath>
</defs>
</svg>
