<svg width="156" height="48" viewBox="0 0 156 48" fill="none" xmlns="http://www.w3.org/2000/svg">
<path d="M33.0198 2.6689C30.0742 1.39258 26.6529 2.74888 25.3783 5.69829C24.1036 8.6477 25.4581 12.0733 28.4038 13.3497C31.3494 14.626 34.7706 13.2697 36.0453 10.3203C37.32 7.37086 35.9655 3.94523 33.0198 2.6689Z" fill="white"/>
<path d="M11.556 37.715C12.8293 34.769 19.9833 25.5336 22.647 26.6876C25.3108 27.8418 23.4842 39.3858 22.211 42.3318C20.9378 45.2778 17.5204 46.6326 14.5781 45.3578C11.6358 44.0828 10.2828 40.6612 11.556 37.715Z" fill="white"/>
<path d="M37.4766 36.28C34.5342 35.0052 25.3106 27.842 26.4634 25.1748C27.6161 22.5076 39.1451 24.3364 42.0873 25.6114C45.0298 26.8862 46.3826 30.308 45.1095 33.254C43.8363 36.2 40.4189 37.5548 37.4766 36.28Z" fill="white"/>
<path d="M10.1225 11.7613C13.0648 13.0361 22.2885 20.1993 21.1358 22.8665C19.9831 25.5335 8.454 23.7047 5.51171 22.4299C2.56944 21.1549 1.21641 17.7333 2.48964 14.7872C3.76289 11.8411 7.18023 10.4864 10.1225 11.7613Z" fill="white"/>
<path d="M54.442 34.5001C54.0423 34.5001 53.7447 34.4069 53.5493 34.2207C53.3634 34.0253 53.2705 33.7273 53.2705 33.3269V16.7639C53.2705 16.3542 53.3634 16.0563 53.5493 15.8701C53.7447 15.6839 54.0423 15.5907 54.442 15.5907C54.8513 15.5907 55.1487 15.6839 55.3347 15.8701C55.5206 16.0563 55.6137 16.3542 55.6137 16.7639V33.3269C55.6137 33.7273 55.5206 34.0253 55.3347 34.2207C55.1487 34.4069 54.8513 34.5001 54.442 34.5001ZM60.9135 34.2487C60.2905 33.8205 60.1976 33.2711 60.6347 32.6007L65.7395 25.0595L60.3556 17.4621C59.9372 16.8476 60.0394 16.2983 60.6624 15.8142C61.304 15.3766 61.8433 15.479 62.2804 16.1214L67.2738 23.1321L72.2949 16.1214C72.7783 15.4976 73.3176 15.4139 73.9128 15.8701C74.545 16.3356 74.6381 16.8756 74.1917 17.4901L68.6963 25.1433L73.9686 32.5729C74.4056 33.2153 74.3033 33.7739 73.6618 34.2487C73.0202 34.6863 72.4809 34.5839 72.0438 33.9415L67.1901 27.0983L62.5594 33.9695C62.1315 34.5745 61.583 34.6677 60.9135 34.2487ZM80.049 34.5001C79.6493 34.5001 79.3517 34.4069 79.1563 34.2207C78.9704 34.0253 78.8775 33.7273 78.8775 33.3269V16.7639C78.8775 16.3542 78.9704 16.0563 79.1563 15.8701C79.3517 15.6839 79.6493 15.5907 80.049 15.5907C80.4582 15.5907 80.7557 15.6839 80.9416 15.8701C81.1276 16.0563 81.2207 16.3542 81.2207 16.7639V33.3269C81.2207 33.7273 81.1276 34.0253 80.9416 34.2207C80.7557 34.4069 80.4582 34.5001 80.049 34.5001ZM96.2408 34.5001C95.7478 34.5001 95.5016 34.2533 95.5016 33.7599V17.2387C95.5016 16.7452 95.7478 16.4985 96.2408 16.4985C96.7242 16.4985 96.9661 16.7452 96.9661 17.2387V33.0337H105.446C105.939 33.0337 106.185 33.2757 106.185 33.7599C106.185 34.2533 105.939 34.5001 105.446 34.5001H96.2408ZM112.824 34.5001C111.373 34.5001 110.308 34.1649 109.63 33.4945C108.96 32.8149 108.625 31.7489 108.625 30.2965C108.625 28.8441 108.965 27.7781 109.644 27.0983C110.322 26.4187 111.382 26.0789 112.824 26.0789H119.17C119.151 24.8499 118.872 23.9933 118.333 23.5093C117.803 23.0157 116.896 22.7691 115.613 22.7691H113.995C112.814 22.7691 111.949 22.8947 111.401 23.1461C110.852 23.3975 110.513 23.8257 110.383 24.4309C110.318 24.6637 110.229 24.8359 110.118 24.9477C110.016 25.0501 109.848 25.1013 109.616 25.1013C109.374 25.1013 109.183 25.0361 109.044 24.9057C108.914 24.7661 108.867 24.5799 108.904 24.3471C109.025 23.2857 109.504 22.5131 110.341 22.0289C111.187 21.5447 112.405 21.3027 113.995 21.3027H115.613C117.352 21.3027 118.621 21.7077 119.421 22.5177C120.23 23.3183 120.634 24.5893 120.634 26.3303V33.7599C120.634 34.2533 120.392 34.5001 119.909 34.5001C119.416 34.5001 119.17 34.2533 119.17 33.7599V32.3773C118.277 33.7925 116.682 34.5001 114.386 34.5001H112.824ZM112.824 33.0337H114.386C115.288 33.0337 116.078 32.9359 116.757 32.7405C117.445 32.5357 117.998 32.2097 118.417 31.7629C118.835 31.3159 119.086 30.7201 119.17 29.9753V27.5453H112.824C111.791 27.5453 111.075 27.7455 110.676 28.1457C110.285 28.5369 110.09 29.2537 110.09 30.2965C110.09 31.3299 110.285 32.0469 110.676 32.4471C111.075 32.8383 111.791 33.0337 112.824 33.0337ZM126.343 34.5001C125.85 34.5001 125.603 34.2533 125.603 33.7599V15.8561C125.603 15.372 125.85 15.1299 126.343 15.1299C126.826 15.1299 127.068 15.372 127.068 15.8561V23.2439C127.486 22.6015 128.081 22.1127 128.853 21.7775C129.634 21.4423 130.639 21.2747 131.866 21.2747H132.926C134.665 21.2747 135.934 21.6797 136.734 22.4897C137.542 23.2997 137.947 24.5753 137.947 26.3163V29.4585C137.947 31.1995 137.542 32.4751 136.734 33.2851C135.934 34.0951 134.665 34.5001 132.926 34.5001H131.866C130.639 34.5001 129.634 34.3371 128.853 34.0113C128.081 33.6761 127.486 33.1827 127.068 32.5309V33.7599C127.068 34.2533 126.826 34.5001 126.343 34.5001ZM131.866 33.0337H132.926C134.255 33.0337 135.181 32.7731 135.701 32.2517C136.222 31.7209 136.482 30.7899 136.482 29.4585V26.3163C136.482 24.9849 136.218 24.0585 135.687 23.5371C135.167 23.0065 134.246 22.7411 132.926 22.7411H131.866C130.415 22.7411 129.253 22.9693 128.379 23.4255C127.505 23.8817 127.068 24.5753 127.068 25.5063V30.3245C127.086 31.2275 127.533 31.9071 128.407 32.3633C129.281 32.8103 130.434 33.0337 131.866 33.0337ZM145.68 34.4721C144.536 34.4721 143.662 34.2301 143.058 33.7459C142.453 33.2525 142.091 32.5031 141.97 31.4975C141.942 31.2555 141.993 31.0693 142.123 30.9389C142.253 30.7993 142.444 30.7295 142.695 30.7295C142.928 30.7295 143.1 30.7899 143.211 30.9109C143.332 31.0319 143.411 31.2135 143.448 31.4557C143.532 32.0329 143.741 32.4379 144.076 32.6707C144.42 32.8941 144.955 33.0057 145.68 33.0057H150.255C151.119 33.0057 151.714 32.8429 152.04 32.5169C152.365 32.1911 152.528 31.5953 152.528 30.7295C152.528 29.8543 152.365 29.2537 152.04 28.9279C151.714 28.6019 151.119 28.4391 150.255 28.4391H145.736C144.527 28.4391 143.625 28.1505 143.03 27.5733C142.444 26.9867 142.151 26.0883 142.151 24.8779C142.151 23.6395 142.444 22.7319 143.03 22.1545C143.616 21.5681 144.518 21.2747 145.736 21.2747H150.115C152.217 21.2747 153.384 22.2057 153.616 24.0679C153.653 24.3099 153.602 24.5007 153.463 24.6405C153.332 24.7707 153.146 24.8359 152.905 24.8359C152.672 24.8359 152.496 24.7755 152.375 24.6545C152.263 24.5333 152.184 24.3565 152.138 24.1237C152.072 23.6023 151.882 23.2439 151.566 23.0483C151.259 22.8435 150.775 22.7411 150.115 22.7411H145.736C144.927 22.7411 144.369 22.8901 144.062 23.1881C143.764 23.4859 143.616 24.0493 143.616 24.8779C143.616 25.6693 143.769 26.2185 144.076 26.5257C144.383 26.8237 144.936 26.9727 145.736 26.9727H150.255C151.538 26.9727 152.482 27.2799 153.086 27.8945C153.69 28.4995 153.993 29.4445 153.993 30.7295C153.993 32.0049 153.69 32.9499 153.086 33.5645C152.482 34.1695 151.538 34.4721 150.255 34.4721H145.68Z" fill="white"/>
</svg>
