<svg width="179" height="48" viewBox="0 0 179 48" fill="none" xmlns="http://www.w3.org/2000/svg">
<g clip-path="url(#clip0_1813_16552)">
<mask id="mask0_1813_16552" style="mask-type:luminance" maskUnits="userSpaceOnUse" x="0" y="0" width="179" height="48">
<path d="M178.585 0H0.25V48H178.585V0Z" fill="white"/>
</mask>
<g mask="url(#mask0_1813_16552)">
<path d="M24.3105 0.000239143C11.15 0.0604495 0.530372 10.8532 0.588494 24.1079C0.648276 37.3625 11.3659 48.0583 24.5247 47.9997C37.6851 47.9395 48.3048 37.1468 48.2467 23.8938C48.1869 10.6375 37.4709 -0.058299 24.3105 0.000239143ZM21.2931 22.8234C18.94 22.8234 17.0319 20.9033 17.0319 18.5334C17.0319 16.1635 18.94 14.2434 21.2931 14.2434C23.6462 14.2434 25.5527 16.1651 25.5527 18.5334C25.5527 20.9016 23.6446 22.8234 21.2931 22.8234ZM24.6908 27.4613L24.7124 27.4345L24.7355 27.4077C25.9511 28.1972 27.3394 28.4765 28.726 28.5166C30.1143 28.5534 31.5292 28.448 32.9208 28.1654C34.3107 27.8744 35.6774 27.4445 36.9976 26.896C37.7383 26.5882 38.4756 26.252 39.178 25.8573C39.183 25.854 39.1863 25.8523 39.1913 25.8489C39.628 25.5847 40.0548 25.3054 40.4733 25.0177C40.5646 24.9525 40.6526 24.8839 40.739 24.8137L40.749 24.8254L40.7855 24.8689C39.7144 25.8507 38.439 26.5798 37.1404 27.2237C35.8285 27.8459 34.4602 28.3561 33.047 28.724C31.6388 29.0903 30.1691 29.368 28.6812 29.2308C27.2166 29.1004 25.6739 28.5835 24.6875 27.4629L24.6908 27.4613ZM35.6243 22.8234C35.6226 22.3083 36.0345 21.8934 36.5426 21.8885C37.0541 21.8868 37.466 22.2999 37.4709 22.8134C37.4726 23.3268 37.0607 23.7466 36.5526 23.7483C36.0428 23.75 35.6292 23.3352 35.6243 22.8234ZM28.3258 45.8422C27.4058 39.3479 33.0371 32.9873 36.2122 29.7325C36.9328 28.9949 38.0471 27.9781 39.0834 26.8976C43.2051 23.0157 44.0254 18.3778 35.5894 16.0597C33.9902 15.5931 32.333 14.9324 30.6541 14.2651C30.6009 14.1096 30.5411 13.9624 30.4713 13.8236C30.2787 13.4891 29.9417 13.1044 29.4318 12.6678C28.3358 11.7095 26.275 11.7346 24.4965 12.1594C22.5303 11.6928 20.5906 11.5272 18.7258 11.9771C10.5671 14.2417 9.2553 18.2491 8.9381 23.0776C8.50635 28.2959 8.25395 32.1845 6.29275 36.6267C3.84499 33.0709 2.4019 28.7575 2.38197 24.1028C2.32717 11.8467 12.1481 1.86677 24.3171 1.81158C36.4861 1.75638 46.3951 11.6477 46.4498 23.9039C46.4997 34.8504 38.6682 43.9841 28.3242 45.8456L28.3258 45.8422Z" fill="#F3F7F4"/>
<path d="M24.2889 18.5719C24.2889 20.2394 22.9471 21.5891 21.2931 21.5891C19.6391 21.5891 18.2957 20.2394 18.2957 18.5719C18.2957 16.9044 19.6375 15.5547 21.2931 15.5547C22.9487 15.5547 24.2889 16.9044 24.2889 18.5719Z" fill="#F3F7F4"/>
<path d="M72.8149 20.9481C72.3259 19.0229 71.0904 17.6156 68.6664 17.6156C65.1004 17.6156 63.6084 20.785 63.6084 23.9998C63.6084 27.2145 65.1004 30.3839 68.6664 30.3839C71.2539 30.3839 72.6749 28.4352 72.9084 25.9939H75.7514C75.518 30.0073 72.6979 32.7782 68.6664 32.7782C63.6784 32.7782 60.6949 28.7883 60.6949 23.9981C60.6949 19.2079 63.6784 15.2197 68.6664 15.2197C72.4194 15.2432 75.3789 17.3332 75.7279 20.9481H72.8149Z" fill="#F3F7F4"/>
<path d="M77.4775 26.3016C77.4775 22.5925 79.691 19.9175 83.561 19.9175C87.4305 19.9175 89.644 22.5942 89.644 26.3016C89.644 30.009 87.4305 32.7093 83.561 32.7093C79.691 32.7093 77.4775 30.0325 77.4775 26.3016ZM86.9865 26.3016C86.9865 24.2117 85.938 22.0292 83.561 22.0292C81.1835 22.0292 80.135 24.2117 80.135 26.3016C80.135 28.3915 81.1835 30.5975 83.561 30.5975C85.938 30.5975 86.9865 28.4151 86.9865 26.3016Z" fill="#F3F7F4"/>
<path d="M91.928 15.6201H94.5855V18.1556H91.928V15.6201ZM91.928 20.2439H94.5855V32.38H91.928V20.2439Z" fill="#F3F7F4"/>
<path d="M97.4755 20.2453H99.993V22.0292L100.039 22.0763C100.832 20.738 102.206 19.9175 103.792 19.9175C106.403 19.9175 108.057 21.3264 108.057 24.0486V32.3814H105.4V24.7531C105.353 22.8514 104.607 22.0309 103.046 22.0309C101.275 22.0309 100.133 23.4399 100.133 25.2238V32.3831H97.4755V20.247V20.2453Z" fill="#F3F7F4"/>
<path d="M125.747 32.3811H123.882L123.44 30.4089C121.879 32.1928 120.457 32.7796 118.428 32.7796C113.44 32.7796 110.457 28.7898 110.457 23.9996C110.457 19.2094 113.44 15.2212 118.428 15.2212C122.064 15.2212 125.118 17.1699 125.56 20.9496H122.717C122.437 18.7436 120.527 17.6171 118.428 17.6171C114.862 17.6171 113.37 20.7865 113.37 24.0012C113.37 27.216 114.862 30.3854 118.428 30.3854C121.412 30.4324 123.043 28.625 123.089 25.7852H118.66V23.5557H125.745V32.3811H125.747Z" fill="#F3F7F4"/>
<path d="M130.618 27.0041C130.618 28.9057 131.643 30.5955 133.859 30.5955C135.396 30.5955 136.329 29.9146 136.795 28.5762H139.313C138.73 31.2294 136.493 32.7073 133.859 32.7073C130.082 32.7073 127.962 30.0541 127.962 26.3232C127.962 22.873 130.199 19.9155 133.788 19.9155C137.588 19.9155 139.919 23.3657 139.476 27.0041H130.62H130.618ZM136.818 25.2437C136.725 23.554 135.583 22.0273 133.788 22.0273C131.994 22.0273 130.688 23.4363 130.618 25.2437H136.818Z" fill="#F3F7F4"/>
<path d="M149.638 24.3058C149.428 22.8262 148.356 22.0292 146.888 22.0292C145.513 22.0292 143.578 22.7573 143.578 26.4428C143.578 28.4621 144.464 30.5975 146.772 30.5975C148.309 30.5975 149.382 29.5651 149.638 27.8283H152.296C151.806 30.9741 149.872 32.7109 146.772 32.7109C142.995 32.7109 140.922 30.0107 140.922 26.4428C140.922 22.875 142.904 19.9175 146.865 19.9175C149.661 19.9175 152.039 21.3264 152.296 24.3075H149.638V24.3058Z" fill="#F3F7F4"/>
<path d="M154.532 15.6201H157.19V25.1501L161.991 20.2439H165.253L160.639 24.7045L165.697 32.38H162.457L158.774 26.4885L157.19 28.037V32.38H154.532V15.6201Z" fill="#F3F7F4"/>
<path d="M166.418 26.3016C166.418 22.5925 168.632 19.9175 172.502 19.9175C176.371 19.9175 178.585 22.5942 178.585 26.3016C178.585 30.009 176.371 32.7093 172.502 32.7093C168.632 32.7093 166.418 30.0325 166.418 26.3016ZM175.927 26.3016C175.927 24.2117 174.879 22.0292 172.502 22.0292C170.124 22.0292 169.076 24.2117 169.076 26.3016C169.076 28.3915 170.124 30.5975 172.502 30.5975C174.879 30.5975 175.927 28.4151 175.927 26.3016Z" fill="#F3F7F4"/>
</g>
</g>
<defs>
<clipPath id="clip0_1813_16552">
<rect width="178.5" height="48" fill="white" transform="translate(0.25)"/>
</clipPath>
</defs>
</svg>
