<svg width="25" height="24" viewBox="0 0 25 24" fill="none" xmlns="http://www.w3.org/2000/svg">
<mask id="mask0_1225_11734" style="mask-type:alpha" maskUnits="userSpaceOnUse" x="0" y="0" width="25" height="24">
<rect x="0.5" width="24" height="24" fill="#D9D9D9"/>
</mask>
<g mask="url(#mask0_1225_11734)">
<path d="M9.25 22.425C8.48333 22.425 7.79583 22.225 7.1875 21.825C6.57917 21.425 6.10833 20.875 5.775 20.175C5.50833 20.525 5.17083 20.7959 4.7625 20.9875C4.35417 21.1792 3.93333 21.275 3.5 21.275C2.65 21.275 1.9375 20.9834 1.3625 20.4C0.7875 19.8167 0.5 19.1084 0.5 18.275C0.5 17.5584 0.733333 16.9125 1.2 16.3375C1.66667 15.7625 2.25833 15.4334 2.975 15.35C2.74167 15.0167 2.5625 14.6625 2.4375 14.2875C2.3125 13.9125 2.25 13.5167 2.25 13.1C2.25 12.8167 2.28333 12.5334 2.35 12.25C2.41667 11.9667 2.51667 11.6917 2.65 11.425C2.78333 11.175 2.97917 11.0042 3.2375 10.9125C3.49583 10.8209 3.75 10.8417 4 10.975C4.25 11.1084 4.425 11.3042 4.525 11.5625C4.625 11.8209 4.60833 12.075 4.475 12.325C4.40833 12.4584 4.35833 12.5917 4.325 12.725C4.29167 12.8584 4.275 12.9917 4.275 13.125C4.275 13.975 4.60417 14.525 5.2625 14.775C5.92083 15.025 6.58333 15.2084 7.25 15.325C7.38333 15.3584 7.50833 15.4084 7.625 15.475C7.74167 15.5417 7.83333 15.6334 7.9 15.75C7.96667 15.8667 8.00417 15.9875 8.0125 16.1125C8.02083 16.2375 8 16.3667 7.95 16.5C7.78333 16.95 7.65 17.3334 7.55 17.65C7.45 17.9667 7.4 18.2667 7.4 18.55C7.4 19.05 7.57917 19.4875 7.9375 19.8625C8.29583 20.2375 8.73333 20.425 9.25 20.425C9.78333 20.425 10.2417 20.2209 10.625 19.8125C11.0083 19.4042 11.3292 18.8959 11.5875 18.2875C11.8458 17.6792 12.0542 17.0334 12.2125 16.35C12.3708 15.6667 12.5 15.05 12.6 14.5C12.65 14.2167 12.7917 13.9959 13.025 13.8375C13.2583 13.6792 13.5083 13.6417 13.775 13.725C14.0583 13.8084 14.2708 13.975 14.4125 14.225C14.5542 14.475 14.5917 14.7417 14.525 15.025C14.375 15.7917 14.1833 16.6084 13.95 17.475C13.7167 18.3417 13.4042 19.1417 13.0125 19.875C12.6208 20.6084 12.1208 21.2167 11.5125 21.7C10.9042 22.1834 10.15 22.425 9.25 22.425ZM15.775 22.425C15.475 22.425 15.2292 22.3292 15.0375 22.1375C14.8458 21.9459 14.75 21.7084 14.75 21.425C14.75 21.1417 14.8458 20.9042 15.0375 20.7125C15.2292 20.5209 15.4667 20.425 15.75 20.425C16.2833 20.425 16.7292 20.2375 17.0875 19.8625C17.4458 19.4875 17.625 19.0417 17.625 18.525C17.625 18.2417 17.5708 17.9292 17.4625 17.5875C17.3542 17.2459 17.2083 16.8334 17.025 16.35C16.9917 16.2334 16.975 16.1209 16.975 16.0125C16.975 15.9042 17.0083 15.8 17.075 15.7C17.1417 15.6 17.2167 15.5209 17.3 15.4625C17.3833 15.4042 17.4917 15.3584 17.625 15.325C18.3083 15.2084 19 15.0292 19.7 14.7875C20.4 14.5459 20.75 13.9834 20.75 13.1C20.75 12.4334 20.5042 11.95 20.0125 11.65C19.5208 11.35 18.9833 11.2 18.4 11.2C17.8167 11.2 17.1417 11.3 16.375 11.5C15.6083 11.7 14.7333 11.9584 13.75 12.275C13.4667 12.3584 13.1917 12.3459 12.925 12.2375C12.6583 12.1292 12.4833 11.9334 12.4 11.65C12.3167 11.3667 12.3583 11.1 12.525 10.85C12.6917 10.6 12.9167 10.4334 13.2 10.35C14.25 10.0167 15.2 9.74172 16.05 9.52505C16.9 9.30838 17.6917 9.20005 18.425 9.20005C19.575 9.20005 20.5833 9.54172 21.45 10.225C22.3167 10.9084 22.75 11.8667 22.75 13.1C22.75 13.5167 22.6875 13.9125 22.5625 14.2875C22.4375 14.6625 22.2583 15.0167 22.025 15.35C22.7417 15.4334 23.3333 15.7625 23.8 16.3375C24.2667 16.9125 24.5 17.5584 24.5 18.275C24.5 19.1084 24.2125 19.8167 23.6375 20.4C23.0625 20.9834 22.35 21.275 21.5 21.275C21.0667 21.275 20.6458 21.1792 20.2375 20.9875C19.8292 20.7959 19.4917 20.525 19.225 20.175C18.8917 20.8584 18.425 21.4 17.825 21.8C17.225 22.2 16.5417 22.4084 15.775 22.425ZM9.725 14.525C8.44167 13.3584 7.41667 12.3 6.65 11.35C5.88333 10.4 5.5 9.37505 5.5 8.27505C5.5 7.19172 5.87083 6.27922 6.6125 5.53755C7.35417 4.79588 8.26667 4.42505 9.35 4.42505C9.41667 4.42505 9.475 4.42922 9.525 4.43755C9.575 4.44588 9.63333 4.45005 9.7 4.45005C9.63333 4.28338 9.58333 4.11672 9.55 3.95005C9.51667 3.78338 9.5 3.60838 9.5 3.42505C9.5 2.59172 9.79167 1.88338 10.375 1.30005C10.9583 0.716715 11.6667 0.425049 12.5 0.425049C13.3333 0.425049 14.0417 0.716715 14.625 1.30005C15.2083 1.88338 15.5 2.59172 15.5 3.42505C15.5 3.60838 15.4833 3.77922 15.45 3.93755C15.4167 4.09588 15.3667 4.25838 15.3 4.42505H15.65C16.0833 4.42505 16.4958 4.49172 16.8875 4.62505C17.2792 4.75838 17.6417 4.95005 17.975 5.20005C18.2083 5.36672 18.3417 5.58338 18.375 5.85005C18.4083 6.11672 18.3417 6.36672 18.175 6.60005C18.0083 6.83338 17.7917 6.96672 17.525 7.00005C17.2583 7.03338 17.0083 6.96672 16.775 6.80005C16.6083 6.66672 16.4333 6.57088 16.25 6.51255C16.0667 6.45422 15.8667 6.42505 15.65 6.42505C15.1167 6.42505 14.6875 6.57505 14.3625 6.87505C14.0375 7.17505 13.625 7.61672 13.125 8.20005C13.0417 8.30005 12.95 8.37505 12.85 8.42505C12.75 8.47505 12.6333 8.50005 12.5 8.50005C12.3667 8.50005 12.2458 8.47505 12.1375 8.42505C12.0292 8.37505 11.9333 8.30005 11.85 8.20005C11.3333 7.60005 10.9208 7.15422 10.6125 6.86255C10.3042 6.57088 9.88333 6.42505 9.35 6.42505C8.81667 6.42505 8.375 6.60005 8.025 6.95005C7.675 7.30005 7.5 7.74172 7.5 8.27505C7.5 8.97505 7.82917 9.70422 8.4875 10.4625C9.14583 11.2209 10.0333 12.1084 11.15 13.125C11.3833 13.325 11.5208 13.5709 11.5625 13.8625C11.6042 14.1542 11.525 14.4 11.325 14.6C11.1083 14.8167 10.8458 14.9125 10.5375 14.8875C10.2292 14.8625 9.95833 14.7417 9.725 14.525Z" fill="#1D251D"/>
</g>
</svg>
