<svg width="25" height="24" viewBox="0 0 25 24" fill="none" xmlns="http://www.w3.org/2000/svg">
<mask id="mask0_1225_11721" style="mask-type:alpha" maskUnits="userSpaceOnUse" x="0" y="0" width="25" height="24">
<rect x="0.5" width="24" height="24" fill="#D9D9D9"/>
</mask>
<g mask="url(#mask0_1225_11721)">
<path d="M2.24991 13.05C2.04991 12.85 1.95408 12.6166 1.96241 12.35C1.97075 12.0833 2.07491 11.85 2.27491 11.65C2.47491 11.4666 2.70825 11.3708 2.97491 11.3625C3.24158 11.3541 3.47491 11.45 3.67491 11.65L7.92491 15.9C8.12491 16.1 8.22075 16.3333 8.21241 16.6C8.20408 16.8666 8.09991 17.1 7.89991 17.3C7.69991 17.4833 7.46658 17.5791 7.19991 17.5875C6.93325 17.5958 6.69991 17.5 6.49991 17.3L2.24991 13.05ZM12.8499 15.175L21.3499 6.67496C21.5499 6.47496 21.7832 6.37913 22.0499 6.38746C22.3166 6.3958 22.5499 6.49996 22.7499 6.69996C22.9332 6.89996 23.0291 7.1333 23.0374 7.39996C23.0457 7.66663 22.9499 7.89996 22.7499 8.09996L13.5499 17.3C13.3499 17.5 13.1166 17.6 12.8499 17.6C12.5832 17.6 12.3499 17.5 12.1499 17.3L7.89991 13.05C7.71658 12.8666 7.62491 12.6375 7.62491 12.3625C7.62491 12.0875 7.71658 11.85 7.89991 11.65C8.09991 11.45 8.33741 11.35 8.61241 11.35C8.88741 11.35 9.12491 11.45 9.32491 11.65L12.8499 15.175ZM17.0749 8.12496L13.5499 11.65C13.3666 11.8333 13.1374 11.925 12.8624 11.925C12.5874 11.925 12.3499 11.8333 12.1499 11.65C11.9499 11.45 11.8499 11.2125 11.8499 10.9375C11.8499 10.6625 11.9499 10.425 12.1499 10.225L15.6749 6.69996C15.8582 6.51663 16.0874 6.42496 16.3624 6.42496C16.6374 6.42496 16.8749 6.51663 17.0749 6.69996C17.2749 6.89996 17.3749 7.13746 17.3749 7.41246C17.3749 7.68746 17.2749 7.92496 17.0749 8.12496Z" fill="#1D251D"/>
</g>
</svg>
