<svg width="24" height="24" viewBox="0 0 24 24" fill="none" xmlns="http://www.w3.org/2000/svg">
<path d="M10.7761 22.5C9.73891 22.5 8.72663 22.292 7.7674 21.882C5.90709 21.0867 4.47146 19.6228 3.72503 17.7601L3.72473 17.7594C2.97814 15.8959 3.01066 13.8567 3.81629 12.0174C4.26946 10.9827 4.96224 10.0507 5.82317 9.3168C5.77566 8.1942 5.98906 7.05705 6.44222 6.0222C7.64557 3.2751 10.3801 1.5 13.409 1.5C14.4455 1.5 15.4571 1.70775 16.4158 2.11725C16.4164 2.11755 16.4177 2.118 16.4177 2.118C18.278 2.9133 19.7135 4.37715 20.4601 6.23985C21.207 8.1036 21.1746 10.143 20.3688 11.9826C19.9157 13.0173 19.2227 13.9493 18.3619 14.6832C18.4096 15.8058 18.1962 16.9429 17.7429 17.9778C16.5394 20.7249 13.8048 22.5 10.7761 22.5ZM6.29686 11.622C6.02113 11.9791 5.78945 12.3705 5.60618 12.7892C5.01394 14.1414 4.98742 15.6441 5.53185 17.0203C6.08362 18.4153 7.15179 19.5104 8.53976 20.1038C9.25338 20.4089 10.006 20.5635 10.7767 20.5635C13.0277 20.5635 15.0594 19.2459 15.953 17.2066L15.9533 17.206C16.1354 16.7904 16.265 16.3587 16.3401 15.9187C15.4119 16.3027 14.4029 16.5045 13.4016 16.5045C12.3647 16.5045 11.3527 16.2966 10.3938 15.8866C9.28035 15.4105 8.2892 14.6707 7.52778 13.7472C7.00943 13.1191 6.58773 12.39 6.29686 11.622ZM7.90347 10.2118C8.29505 11.9487 9.50634 13.3992 11.1657 14.1087C11.8792 14.4138 12.6317 14.5684 13.4022 14.5684C14.417 14.5684 15.4096 14.299 16.2816 13.7884C15.8899 12.0516 14.6786 10.6011 13.0194 9.8916C12.306 9.5865 11.5535 9.43185 10.783 9.43185C9.76814 9.4317 8.77549 9.7011 7.90347 10.2118ZM10.7839 7.49535C11.8207 7.49535 12.8327 7.70325 13.7918 8.1132C14.9052 8.58915 15.8962 9.32895 16.6578 10.2527C17.1757 10.8809 17.5974 11.6099 17.8884 12.378C18.1641 12.0207 18.3958 11.6294 18.5791 11.2109C19.1761 9.84765 19.2002 8.33625 18.6468 6.95535C18.093 5.57325 17.0272 4.48695 15.6457 3.89625C14.932 3.59115 14.1795 3.4365 13.4087 3.4365C11.1575 3.4365 9.12555 4.7544 8.23226 6.79395C8.05018 7.2096 7.92056 7.64115 7.84548 8.08125C8.77369 7.69725 9.78252 7.49535 10.7839 7.49535Z" fill="#1D251D"/>
</svg>
