<svg width="24" height="24" viewBox="0 0 24 24" fill="none" xmlns="http://www.w3.org/2000/svg">
<path fill-rule="evenodd" clip-rule="evenodd" d="M13.6871 2.46496C16.8297 8.70898 18.4215 11.8971 18.4629 12.0291C18.5783 12.4331 18.6361 12.6768 18.6364 12.7589C18.6364 13.5012 18.2776 14.0827 17.5597 14.5033C17.2547 14.6519 16.9536 14.7259 16.6567 14.7259C16.0133 14.7259 15.4729 14.4333 15.0358 13.8476C14.9863 13.7735 14.1079 12.0248 12.4005 8.60166C12.2849 8.48615 12.157 8.42833 12.0169 8.42833C11.7526 8.42833 11.5384 8.65934 11.3734 9.12123L5.03869 21.6547C4.79131 22.026 4.42829 22.29 3.9499 22.4463C3.8839 22.4631 3.82608 22.4711 3.77671 22.4711H3.7343C3.63025 22.4887 3.52443 22.4999 3.41547 22.4999C3.29983 22.4999 3.1869 22.488 3.07658 22.4683C2.89835 22.4585 2.70033 22.3881 2.48282 22.2568C2.36745 22.1923 2.25986 22.1156 2.16099 22.0298C2.13849 22.0117 2.11654 21.9952 2.09404 21.9765C2.0489 21.9304 2.00731 21.8834 1.96721 21.8357C1.67674 21.4998 1.5 21.0632 1.5 20.5846C1.5 20.5823 1.50021 20.5803 1.50043 20.5781C1.50052 20.5773 1.50061 20.5765 1.50068 20.5756L1.50047 20.5734C1.50024 20.5709 1.5 20.5684 1.5 20.566C1.5 20.5614 1.50069 20.5561 1.50132 20.5508C1.5018 20.5467 1.50225 20.5426 1.50232 20.5389C1.51063 20.1857 1.61469 19.857 1.78938 19.5757C1.92575 19.261 2.10767 18.8922 2.34127 18.4627C2.34127 18.4378 4.52703 14.0703 8.89894 5.36012C9.85572 3.42992 10.3712 2.41137 10.4454 2.30404C10.8827 1.76797 11.3816 1.5 11.9426 1.5H12.0911C12.7345 1.5 13.2665 1.82156 13.6871 2.46496ZM22.5314 20.5845C22.5314 21.6424 21.6738 22.5 20.6159 22.5C19.558 22.5 18.7004 21.6424 18.7004 20.5845C18.7004 19.5266 19.558 18.6691 20.6159 18.6691C21.6738 18.6691 22.5314 19.5266 22.5314 20.5845Z" fill="#1D251D"/>
</svg>
