<svg width="25" height="24" viewBox="0 0 25 24" fill="none" xmlns="http://www.w3.org/2000/svg">
<mask id="mask0_1225_11687" style="mask-type:alpha" maskUnits="userSpaceOnUse" x="0" y="0" width="25" height="24">
<rect x="0.5" width="24" height="24" fill="#D9D9D9"/>
</mask>
<g mask="url(#mask0_1225_11687)">
<path d="M12.4998 14.975C12.3665 14.975 12.2415 14.9542 12.1248 14.9125C12.0081 14.8709 11.8998 14.8 11.7998 14.7L7.1998 10.1C7.01647 9.91672 6.9248 9.68338 6.9248 9.40005C6.9248 9.11672 7.01647 8.88338 7.1998 8.70005C7.38314 8.51672 7.61647 8.42505 7.8998 8.42505C8.18314 8.42505 8.41647 8.51672 8.5998 8.70005L12.4998 12.6L16.3998 8.70005C16.5831 8.51672 16.8165 8.42505 17.0998 8.42505C17.3831 8.42505 17.6165 8.51672 17.7998 8.70005C17.9831 8.88338 18.0748 9.11672 18.0748 9.40005C18.0748 9.68338 17.9831 9.91672 17.7998 10.1L13.1998 14.7C13.0998 14.8 12.9915 14.8709 12.8748 14.9125C12.7581 14.9542 12.6331 14.975 12.4998 14.975Z" fill="#1D251D"/>
</g>
</svg>
