<svg width="24" height="24" viewBox="0 0 24 24" fill="none" xmlns="http://www.w3.org/2000/svg">
<path fill-rule="evenodd" clip-rule="evenodd" d="M11.9375 22.5C17.7365 22.5 22.4375 17.799 22.4375 12C22.4375 6.20101 17.7365 1.5 11.9375 1.5C6.13851 1.5 1.4375 6.20101 1.4375 12C1.4375 17.799 6.13851 22.5 11.9375 22.5ZM8.90837 15.3963L8.48105 16.1044H9.48114C10.7805 16.1044 11.8376 15.0407 11.8376 13.733V13.5246C11.8376 12.217 10.7805 11.1532 9.48114 11.1532H8.16898C7.82035 11.1532 7.2355 11.0029 7.2355 9.99639C7.2355 9.47342 7.65426 9.04797 8.16898 9.04797H12.6502L13.0593 8.34305L12.6483 7.62495H8.16898C7.54586 7.62495 6.95615 7.87237 6.50851 8.32165C6.05967 8.77212 5.81247 9.36689 5.81247 9.99639V10.2048C5.81247 10.8343 6.05967 11.4291 6.50851 11.8795C6.95612 12.3288 7.54584 12.5762 8.16898 12.5762H9.48114C9.85686 12.5762 10.1493 12.7497 10.3046 13.0647C10.4153 13.2894 10.4295 13.5399 10.4295 13.733C10.4295 14.256 10.0041 14.6814 9.48114 14.6814H8.47902L8.90837 15.3963ZM14.7398 16.1044C13.4405 16.1044 12.3833 15.0406 12.3833 13.733V13.5246C12.3833 12.2169 13.4405 11.1531 14.7398 11.1531H16.056C16.4046 11.1531 16.9895 11.0028 16.9895 9.99634C16.9895 9.4734 16.5707 9.04794 16.056 9.04794H14.9857L15.3778 8.34622L14.9803 7.62489H16.056C16.6791 7.62489 17.2688 7.87231 17.7165 8.32156C18.1653 8.77206 18.4125 9.36683 18.4125 9.99631V10.2047C18.4125 10.8342 18.1653 11.429 17.7164 11.8795C17.2688 12.3287 16.6791 12.5762 16.056 12.5762H14.7398C14.3641 12.5762 14.0717 12.7496 13.9164 13.0647C13.8057 13.2893 13.7915 13.5398 13.7915 13.733C13.7915 14.2559 14.2169 14.6814 14.7398 14.6814H15.6115L16.056 15.3951L15.6122 16.1044H14.7398V16.1044ZM12.9205 7.62489L13.3389 8.34658L12.9344 9.04095H13.3231L13.7238 8.34702L13.3092 7.62489H12.9205ZM6.86952 15.399L6.45113 14.6773H6.83985L7.25444 15.3995L6.85374 16.0934H6.46502L6.86952 15.399ZM15.947 14.6773L16.3654 15.399L15.9609 16.0934H16.3496L16.7503 15.3995L16.3357 14.6773H15.947ZM14.0331 8.34658L13.6147 7.62489H14.0034L14.418 8.34702L14.0173 9.04095H13.6286L14.0331 8.34658ZM7.14528 14.6773L7.56366 15.399L7.15916 16.0934H7.54788L7.94858 15.3995L7.534 14.6773H7.14528ZM17.0596 15.399L16.6412 14.6773H17.0299L17.4445 15.3995L17.0438 16.0934H16.6551L17.0596 15.399ZM14.3088 7.62489L14.7272 8.34658L14.3227 9.04095H14.7114L15.1121 8.34702L14.6976 7.62489H14.3088ZM8.25773 15.399L7.83934 14.6773H8.22806L8.64264 15.3995L8.24194 16.0934H7.85322L8.25773 15.399ZM17.3353 14.6773L17.7537 15.399L17.3492 16.0934H17.7379L18.1386 15.3995L17.7241 14.6773H17.3353Z" fill="#1D251D"/>
</svg>
