<svg width="25" height="24" viewBox="0 0 25 24" fill="none" xmlns="http://www.w3.org/2000/svg">
<mask id="mask0_1225_11725" style="mask-type:alpha" maskUnits="userSpaceOnUse" x="0" y="0" width="25" height="24">
<rect x="0.5" width="24" height="24" fill="#D9D9D9"/>
</mask>
<g mask="url(#mask0_1225_11725)">
<path d="M14.525 23.2C14.2417 23.2 14 23.1041 13.8 22.9125C13.6 22.7208 13.5 22.4833 13.5 22.2C13.5 21.9166 13.5958 21.6791 13.7875 21.4875C13.9792 21.2958 14.2167 21.2 14.5 21.2C16.45 21.2 18.1042 20.5208 19.4625 19.1625C20.8208 17.8041 21.5 16.15 21.5 14.2C21.5 13.9166 21.5958 13.6791 21.7875 13.4875C21.9792 13.2958 22.2167 13.2 22.5 13.2C22.7833 13.2 23.0208 13.2958 23.2125 13.4875C23.4042 13.6791 23.5 13.9166 23.5 14.2C23.5 15.4333 23.2625 16.5958 22.7875 17.6875C22.3125 18.7791 21.6708 19.7333 20.8625 20.55C20.0542 21.3666 19.1042 22.0125 18.0125 22.4875C16.9208 22.9625 15.7583 23.2 14.525 23.2ZM14.525 19.2C14.2417 19.2 14 19.1041 13.8 18.9125C13.6 18.7208 13.5 18.4833 13.5 18.2C13.5 17.9166 13.5958 17.6791 13.7875 17.4875C13.9792 17.2958 14.2167 17.2 14.5 17.2C15.3333 17.2 16.0417 16.9083 16.625 16.325C17.2083 15.7416 17.5 15.0333 17.5 14.2C17.5 13.9166 17.5958 13.6791 17.7875 13.4875C17.9792 13.2958 18.2167 13.2 18.5 13.2C18.7833 13.2 19.0208 13.2958 19.2125 13.4875C19.4042 13.6791 19.5 13.9166 19.5 14.2C19.4833 15.5833 18.9958 16.7583 18.0375 17.725C17.0792 18.6916 15.9083 19.1833 14.525 19.2ZM6.05 22.575C5.8 22.575 5.55 22.525 5.3 22.425C5.05 22.325 4.825 22.1833 4.625 22L1.075 18.45C0.891667 18.25 0.75 18.025 0.65 17.775C0.55 17.525 0.5 17.275 0.5 17.025C0.5 16.7583 0.55 16.5041 0.65 16.2625C0.75 16.0208 0.891667 15.8083 1.075 15.625L4.25 12.45C4.63333 12.0666 5.10833 11.8708 5.675 11.8625C6.24167 11.8541 6.71667 12.0416 7.1 12.425L8.35 13.675L9.05 12.975L7.8 11.725C7.41667 11.3416 7.225 10.875 7.225 10.325C7.225 9.77495 7.41667 9.30828 7.8 8.92495L9.225 7.49995C9.60833 7.11662 10.0792 6.92495 10.6375 6.92495C11.1958 6.92495 11.6667 7.11662 12.05 7.49995L13.3 8.74995L14 8.04995L12.75 6.79995C12.3667 6.41662 12.175 5.94578 12.175 5.38745C12.175 4.82912 12.3667 4.35828 12.75 3.97495L15.925 0.799951C16.125 0.599951 16.35 0.449951 16.6 0.349951C16.85 0.249951 17.1 0.199951 17.35 0.199951C17.6 0.199951 17.8458 0.249951 18.0875 0.349951C18.3292 0.449951 18.55 0.599951 18.75 0.799951L22.3 4.34995C22.5 4.53328 22.6458 4.74578 22.7375 4.98745C22.8292 5.22912 22.875 5.48328 22.875 5.74995C22.875 5.99995 22.8292 6.24995 22.7375 6.49995C22.6458 6.74995 22.5 6.97495 22.3 7.17495L19.125 10.35C18.7417 10.7333 18.2708 10.925 17.7125 10.925C17.1542 10.925 16.6833 10.7333 16.3 10.35L15.05 9.09995L14.35 9.79995L15.6 11.05C15.9833 11.4333 16.1708 11.9041 16.1625 12.4625C16.1542 13.0208 15.9583 13.4916 15.575 13.875L14.175 15.275C13.7917 15.6583 13.3208 15.85 12.7625 15.85C12.2042 15.85 11.7333 15.6583 11.35 15.275L10.1 14.025L9.4 14.725L10.65 15.975C11.0333 16.3583 11.2208 16.8333 11.2125 17.4C11.2042 17.9666 11.0083 18.4416 10.625 18.825L7.45 22C7.26667 22.1833 7.05417 22.325 6.8125 22.425C6.57083 22.525 6.31667 22.575 6.05 22.575ZM6.05 20.6L7.1 19.55L3.55 16L2.5 17.05L6.05 20.6ZM8.175 18.475L9.225 17.425L5.675 13.875L4.625 14.925L8.175 18.475ZM17.725 8.92495L18.775 7.87495L15.225 4.32495L14.175 5.37495L17.725 8.92495ZM19.85 6.79995L20.9 5.74995L17.35 2.19995L16.3 3.24995L19.85 6.79995Z" fill="#1D251D"/>
</g>
</svg>
