<svg width="18" height="22" viewBox="0 0 18 22" fill="none" xmlns="http://www.w3.org/2000/svg">
<path d="M7.77607 21.5C6.73891 21.5 5.72663 21.292 4.7674 20.882C2.90709 20.0867 1.47146 18.6228 0.725028 16.7601L0.724728 16.7594C-0.0218561 14.8959 0.0106627 12.8567 0.816291 11.0174C1.26946 9.9827 1.96224 9.05075 2.82317 8.3168C2.77566 7.1942 2.98906 6.05705 3.44222 5.0222C4.64557 2.2751 7.38015 0.5 10.409 0.5C11.4455 0.5 12.4571 0.70775 13.4158 1.11725C13.4164 1.11755 13.4177 1.118 13.4177 1.118C15.278 1.9133 16.7135 3.37715 17.4601 5.23985C18.207 7.1036 18.1746 9.143 17.3688 10.9826C16.9157 12.0173 16.2227 12.9493 15.3619 13.6832C15.4096 14.8058 15.1962 15.9429 14.7429 16.9778C13.5394 19.7249 10.8048 21.5 7.77607 21.5ZM3.29686 10.622C3.02113 10.9791 2.78945 11.3705 2.60618 11.7892C2.01394 13.1414 1.98742 14.6441 2.53185 16.0203C3.08362 17.4153 4.15179 18.5104 5.53976 19.1038C6.25338 19.4088 7.00596 19.5635 7.77667 19.5635C10.0277 19.5635 12.0594 18.2459 12.953 16.2066L12.9533 16.206C13.1354 15.7904 13.265 15.3587 13.3401 14.9187C12.4119 15.3027 11.4029 15.5045 10.4016 15.5045C9.3647 15.5045 8.35272 15.2966 7.39379 14.8867C6.28035 14.4106 5.2892 13.6707 4.52778 12.7472C4.00943 12.1191 3.58773 11.39 3.29686 10.622ZM4.90347 9.21185C5.29505 10.9487 6.50634 12.3992 8.1657 13.1087C8.87916 13.4138 9.63174 13.5684 10.4022 13.5684C11.417 13.5684 12.4096 13.299 13.2816 12.7884C12.8899 11.0516 11.6786 9.6011 10.0194 8.8916C9.30595 8.5865 8.55352 8.43185 7.78296 8.43185C6.76814 8.4317 5.77549 8.7011 4.90347 9.21185ZM7.78386 6.49535C8.82072 6.49535 9.8327 6.70325 10.7918 7.1132C11.9052 7.58915 12.8962 8.32895 13.6578 9.25265C14.1757 9.88085 14.5974 10.6098 14.8884 11.378C15.1641 11.0207 15.3958 10.6294 15.5791 10.2109C16.1761 8.84765 16.2002 7.33625 15.6468 5.95535C15.093 4.57325 14.0272 3.48695 12.6457 2.89625C11.932 2.59115 11.1795 2.4365 10.4087 2.4365C8.15745 2.4365 6.12555 3.7544 5.23226 5.79395C5.05018 6.2096 4.92056 6.64115 4.84548 7.08125C5.77369 6.69725 6.78252 6.49535 7.78386 6.49535Z" fill="#377E42"/>
</svg>
