<svg width="40" height="40" viewBox="0 0 40 40" fill="none" xmlns="http://www.w3.org/2000/svg">
<path fill-rule="evenodd" clip-rule="evenodd" d="M19.896 37.5C29.561 37.5 37.396 29.665 37.396 20C37.396 10.335 29.561 2.5 19.896 2.5C10.231 2.5 2.396 10.335 2.396 20C2.396 29.665 10.231 37.5 19.896 37.5ZM14.8474 25.6605L14.1352 26.8408H15.8021C17.9677 26.8408 19.7296 25.0678 19.7296 22.8884V22.541C19.7296 20.3617 17.9677 18.5887 15.8021 18.5887H13.6151C13.0341 18.5887 12.0593 18.3382 12.0593 16.6607C12.0593 15.789 12.7573 15.08 13.6151 15.08H21.0838L21.7657 13.9051L21.0806 12.7082H13.6151C12.5766 12.7082 11.5937 13.1206 10.8477 13.8694C10.0996 14.6202 9.68762 15.6115 9.68762 16.6607V17.008C9.68762 18.0571 10.0996 19.0484 10.8477 19.7992C11.5937 20.548 12.5766 20.9603 13.6151 20.9603H15.8021C16.4283 20.9603 16.9157 21.2495 17.1745 21.7745C17.3591 22.1489 17.3827 22.5664 17.3827 22.8884C17.3827 23.76 16.6736 24.469 15.8021 24.469H14.1319L14.8474 25.6605ZM24.5666 26.8407C22.4009 26.8407 20.6391 25.0677 20.6391 22.8883V22.5409C20.6391 20.3616 22.4009 18.5886 24.5666 18.5886H26.7601C27.3412 18.5886 28.3159 18.3381 28.3159 16.6606C28.3159 15.789 27.618 15.0799 26.7601 15.0799H24.9764L25.6298 13.9104L24.9673 12.7082H26.7601C27.7987 12.7082 28.7815 13.1205 29.5276 13.8693C30.2757 14.6201 30.6876 15.6114 30.6876 16.6605V17.0078C30.6876 18.057 30.2757 19.0483 29.5276 19.7991C28.7816 20.5479 27.7987 20.9603 26.7601 20.9603H24.5666C23.9404 20.9603 23.453 21.2494 23.1942 21.7744C23.0097 22.1489 22.986 22.5664 22.986 22.8883C22.986 23.7599 23.695 24.469 24.5666 24.469H26.0194L26.7601 25.6585L26.0205 26.8406H24.5666V26.8407ZM21.5343 12.7082L22.2316 13.911L21.5574 15.0682H22.2053L22.8731 13.9117L22.1821 12.7082H21.5343ZM11.4494 25.665L10.7521 24.4622H11.3999L12.0909 25.6658L11.4231 26.8223H10.7752L11.4494 25.665ZM26.5784 24.4622L27.2758 25.665L26.6016 26.8223H27.2495L27.9173 25.6658L27.2263 24.4622H26.5784ZM23.3886 13.911L22.6913 12.7082H23.3392L24.0302 13.9117L23.3623 15.0682H22.7145L23.3886 13.911ZM11.909 24.4622L12.6063 25.665L11.9321 26.8223H12.58L13.2478 25.6658L12.5568 24.4622H11.909ZM28.4328 25.665L27.7355 24.4622H28.3834L29.0743 25.6658L28.4065 26.8223H27.7586L28.4328 25.665ZM23.8482 12.7082L24.5455 13.911L23.8714 15.0682H24.5192L25.1871 13.9117L24.4961 12.7082H23.8482ZM13.763 25.665L13.0657 24.4622H13.7136L14.4046 25.6658L13.7367 26.8223H13.0889L13.763 25.665ZM28.8924 24.4622L29.5897 25.665L28.9155 26.8223H29.5634L30.2312 25.6658L29.5403 24.4622H28.8924Z" fill="#245DEB"/>
</svg>
