<svg width="40" height="40" viewBox="0 0 40 40" fill="none" xmlns="http://www.w3.org/2000/svg">
<path d="M0.5 20C0.5 9.23045 9.23045 0.5 20 0.5C30.7696 0.5 39.5 9.23045 39.5 20C39.5 30.7696 30.7696 39.5 20 39.5C9.23045 39.5 0.5 30.7696 0.5 20Z" stroke="#585A59"/>
<mask id="mask0_611_84" style="mask-type:alpha" maskUnits="userSpaceOnUse" x="8" y="8" width="24" height="24">
<rect x="8" y="8" width="24" height="24" fill="#D9D9D9"/>
</mask>
<g mask="url(#mask0_611_84)">
<path d="M13.8248 25L15.7248 26.9C15.9248 27.1 16.0206 27.3333 16.0123 27.6C16.004 27.8667 15.8998 28.1 15.6998 28.3C15.4998 28.4833 15.2665 28.5792 14.9998 28.5875C14.7331 28.5958 14.4998 28.5 14.2998 28.3L10.6998 24.7C10.5998 24.6 10.529 24.4917 10.4873 24.375C10.4456 24.2583 10.4248 24.1333 10.4248 24C10.4248 23.8667 10.4456 23.7417 10.4873 23.625C10.529 23.5083 10.5998 23.4 10.6998 23.3L14.2998 19.7C14.4831 19.5167 14.7123 19.425 14.9873 19.425C15.2623 19.425 15.4998 19.5167 15.6998 19.7C15.8998 19.9 15.9998 20.1375 15.9998 20.4125C15.9998 20.6875 15.8998 20.925 15.6998 21.125L13.8248 23H27.9998C28.2831 23 28.5206 23.0958 28.7123 23.2875C28.904 23.4792 28.9998 23.7167 28.9998 24C28.9998 24.2833 28.904 24.5208 28.7123 24.7125C28.5206 24.9042 28.2831 25 27.9998 25H13.8248ZM26.1748 17H11.9998C11.7165 17 11.479 16.9042 11.2873 16.7125C11.0956 16.5208 10.9998 16.2833 10.9998 16C10.9998 15.7167 11.0956 15.4792 11.2873 15.2875C11.479 15.0958 11.7165 15 11.9998 15H26.1748L24.2748 13.1C24.0748 12.9 23.979 12.6667 23.9873 12.4C23.9956 12.1333 24.0998 11.9 24.2998 11.7C24.4998 11.5167 24.7331 11.4208 24.9998 11.4125C25.2665 11.4042 25.4998 11.5 25.6998 11.7L29.2998 15.3C29.3998 15.4 29.4706 15.5083 29.5123 15.625C29.554 15.7417 29.5748 15.8667 29.5748 16C29.5748 16.1333 29.554 16.2583 29.5123 16.375C29.4706 16.4917 29.3998 16.6 29.2998 16.7L25.6998 20.3C25.5165 20.4833 25.2873 20.575 25.0123 20.575C24.7373 20.575 24.4998 20.4833 24.2998 20.3C24.0998 20.1 23.9998 19.8625 23.9998 19.5875C23.9998 19.3125 24.0998 19.075 24.2998 18.875L26.1748 17Z" fill="#373937"/>
</g>
</svg>
