<svg width="157" height="48" viewBox="0 0 157 48" fill="none" xmlns="http://www.w3.org/2000/svg">
<circle cx="30.6806" cy="8.00892" r="5.81895" transform="rotate(-156.6 30.6806 8.00892)" fill="white"/>
<path d="M11.5006 37.715C12.7755 34.769 19.9386 25.5335 22.6058 26.6876C25.2729 27.8418 23.4441 39.3857 22.1692 42.3317C20.8943 45.2778 17.4726 46.6325 14.5265 45.3577C11.5805 44.0828 10.2257 40.6611 11.5006 37.715Z" fill="white"/>
<path d="M37.4538 36.2799C34.5077 35.005 25.2722 27.8419 26.4264 25.1747C27.5806 22.5076 39.1244 24.3365 42.0705 25.6113C45.0165 26.8862 46.3713 30.3079 45.0964 33.254C43.8216 36.2 40.3998 37.5548 37.4538 36.2799Z" fill="white"/>
<path d="M10.0648 11.7612C13.0108 13.0361 22.2463 20.1993 21.0921 22.8664C19.938 25.5335 8.39411 23.7047 5.44806 22.4298C2.50201 21.1549 1.14725 17.7332 2.42212 14.7872C3.69699 11.8411 7.11872 10.4864 10.0648 11.7612Z" fill="white"/>
<path d="M54.4417 34C54.0413 34 53.7434 33.9069 53.5479 33.7207C53.3617 33.5252 53.2686 33.2272 53.2686 32.8269V16.2638C53.2686 15.8542 53.3617 15.5562 53.5479 15.37C53.7434 15.1838 54.0413 15.0907 54.4417 15.0907C54.8513 15.0907 55.1493 15.1838 55.3355 15.37C55.5217 15.5562 55.6148 15.8542 55.6148 16.2638V32.8269C55.6148 33.2272 55.5217 33.5252 55.3355 33.7207C55.1493 33.9069 54.8513 34 54.4417 34ZM60.9215 33.7486C60.2977 33.3203 60.2046 32.771 60.6421 32.1007L65.7535 24.5593L60.3628 16.9621C59.9439 16.3476 60.0463 15.7983 60.6701 15.3142C61.3125 14.8766 61.8525 14.979 62.2901 15.6214L67.2897 22.6321L72.3173 15.6214C72.8014 14.9976 73.3414 14.9138 73.9373 15.37C74.5704 15.8356 74.6635 16.3756 74.2166 16.99L68.7142 24.6431L73.9932 32.0728C74.4307 32.7152 74.3283 33.2738 73.6859 33.7486C73.0435 34.1862 72.5035 34.0838 72.0659 33.4414L67.2059 26.5983L62.5694 33.4693C62.1411 34.0745 61.5918 34.1676 60.9215 33.7486ZM80.0815 34C79.6811 34 79.3832 33.9069 79.1877 33.7207C79.0015 33.5252 78.9083 33.2272 78.9083 32.8269V16.2638C78.9083 15.8542 79.0015 15.5562 79.1877 15.37C79.3832 15.1838 79.6811 15.0907 80.0815 15.0907C80.4911 15.0907 80.789 15.1838 80.9752 15.37C81.1614 15.5562 81.2546 15.8542 81.2546 16.2638V32.8269C81.2546 33.2272 81.1614 33.5252 80.9752 33.7207C80.789 33.9069 80.4911 34 80.0815 34ZM96.2939 34C95.8004 34 95.5537 33.7533 95.5537 33.2598V16.7387C95.5537 16.2452 95.8004 15.9985 96.2939 15.9985C96.778 15.9985 97.0201 16.2452 97.0201 16.7387V32.5336H105.511C106.005 32.5336 106.251 32.7757 106.251 33.2598C106.251 33.7533 106.005 34 105.511 34H96.2939ZM112.898 34C111.446 34 110.379 33.6648 109.7 32.9945C109.029 32.3148 108.694 31.2488 108.694 29.7964C108.694 28.344 109.034 27.2779 109.714 26.5983C110.393 25.9186 111.455 25.5788 112.898 25.5788H119.252C119.234 24.3498 118.954 23.4933 118.414 23.0092C117.884 22.5157 116.976 22.269 115.691 22.269H114.071C112.889 22.269 112.023 22.3947 111.473 22.6461C110.924 22.8974 110.584 23.3257 110.454 23.9309C110.389 24.1636 110.3 24.3359 110.189 24.4476C110.086 24.55 109.919 24.6012 109.686 24.6012C109.444 24.6012 109.253 24.5361 109.113 24.4057C108.983 24.2661 108.936 24.0798 108.974 23.8471C109.095 22.7857 109.574 22.013 110.412 21.5288C111.259 21.0447 112.479 20.8026 114.071 20.8026H115.691C117.432 20.8026 118.703 21.2076 119.504 22.0176C120.314 22.8183 120.719 24.0892 120.719 25.8302V33.2598C120.719 33.7533 120.477 34 119.992 34C119.499 34 119.252 33.7533 119.252 33.2598V31.8772C118.358 33.2924 116.762 34 114.462 34H112.898ZM112.898 32.5336H114.462C115.365 32.5336 116.157 32.4359 116.836 32.2403C117.525 32.0355 118.079 31.7097 118.498 31.2628C118.917 30.8159 119.168 30.22 119.252 29.4752V27.0452H112.898C111.864 27.0452 111.148 27.2454 110.747 27.6457C110.356 28.0367 110.161 28.7536 110.161 29.7964C110.161 30.8298 110.356 31.5467 110.747 31.9471C111.148 32.3381 111.864 32.5336 112.898 32.5336ZM126.434 34C125.941 34 125.694 33.7533 125.694 33.2598V15.3561C125.694 14.8719 125.941 14.6299 126.434 14.6299C126.918 14.6299 127.16 14.8719 127.16 15.3561V22.7438C127.579 22.1014 128.175 21.6126 128.948 21.2774C129.73 20.9423 130.736 20.7747 131.965 20.7747H133.026C134.767 20.7747 136.038 21.1797 136.838 21.9897C137.648 22.7997 138.053 24.0752 138.053 25.8162V28.9585C138.053 30.6995 137.648 31.975 136.838 32.785C136.038 33.595 134.767 34 133.026 34H131.965C130.736 34 129.73 33.8371 128.948 33.5112C128.175 33.176 127.579 32.6826 127.16 32.0309V33.2598C127.16 33.7533 126.918 34 126.434 34ZM131.965 32.5336H133.026C134.357 32.5336 135.284 32.2729 135.805 31.7516C136.326 31.2209 136.587 30.2898 136.587 28.9585V25.8162C136.587 24.4848 136.322 23.5585 135.791 23.0371C135.27 22.5064 134.348 22.2411 133.026 22.2411H131.965C130.512 22.2411 129.348 22.4692 128.473 22.9254C127.598 23.3816 127.16 24.0752 127.16 25.0062V29.8243C127.179 30.7274 127.626 31.4071 128.501 31.8633C129.376 32.3102 130.531 32.5336 131.965 32.5336ZM145.796 33.9721C144.651 33.9721 143.776 33.73 143.171 33.2459C142.566 32.7524 142.202 32.0029 142.081 30.9974C142.054 30.7554 142.105 30.5691 142.235 30.4388C142.365 30.2991 142.556 30.2293 142.808 30.2293C143.04 30.2293 143.213 30.2898 143.324 30.4109C143.445 30.5319 143.525 30.7135 143.562 30.9555C143.646 31.5328 143.855 31.9378 144.19 32.1705C144.535 32.394 145.07 32.5057 145.796 32.5057H150.377C151.243 32.5057 151.839 32.3428 152.165 32.0169C152.49 31.691 152.653 31.0952 152.653 30.2293C152.653 29.3541 152.49 28.7536 152.165 28.4278C151.839 28.1019 151.243 27.939 150.377 27.939H145.852C144.642 27.939 143.739 27.6504 143.143 27.0731C142.556 26.4866 142.263 25.5881 142.263 24.3778C142.263 23.1395 142.556 22.2318 143.143 21.6545C143.729 21.068 144.632 20.7747 145.852 20.7747H150.237C152.341 20.7747 153.51 21.7057 153.743 23.5678C153.78 23.8099 153.729 24.0007 153.589 24.1404C153.459 24.2707 153.272 24.3359 153.03 24.3359C152.798 24.3359 152.621 24.2754 152.5 24.1543C152.388 24.0333 152.309 23.8564 152.262 23.6236C152.197 23.1023 152.006 22.7438 151.69 22.5483C151.382 22.3435 150.898 22.2411 150.237 22.2411H145.852C145.042 22.2411 144.484 22.39 144.176 22.688C143.878 22.9859 143.729 23.5492 143.729 24.3778C143.729 25.1692 143.883 25.7185 144.19 26.0257C144.497 26.3236 145.051 26.4726 145.852 26.4726H150.377C151.662 26.4726 152.607 26.7798 153.212 27.3943C153.817 27.9995 154.12 28.9445 154.12 30.2293C154.12 31.5048 153.817 32.4498 153.212 33.0643C152.607 33.6695 151.662 33.9721 150.377 33.9721H145.796Z" fill="white"/>
</svg>
