<svg width="89" height="48" viewBox="0 0 89 48" fill="none" xmlns="http://www.w3.org/2000/svg">
<g clip-path="url(#clip0_1555_17246)">
<path d="M11.703 42.2032V47.3775C11.703 47.792 11.4965 47.9985 11.082 47.9985H10.2545C9.84003 47.9985 9.63353 47.792 9.63353 47.3775V42.2032C9.63353 41.7445 9.43145 41.3551 9.02877 41.032C8.62609 40.709 8.13786 40.5482 7.56408 40.5482H4.25267C3.67888 40.5482 3.19065 40.709 2.78797 41.032C2.3853 41.3551 2.18322 41.7459 2.18322 42.2032V47.3775C2.18322 47.792 1.97672 47.9985 1.56224 47.9985H0.734752C0.320272 47.9985 0.11377 47.792 0.11377 47.3775V42.2032C0.11377 41.2872 0.517924 40.5054 1.32623 39.8609C2.13454 39.2148 3.10953 38.8918 4.25267 38.8918H7.56408C8.70574 38.8918 9.6822 39.2148 10.4905 39.8609C11.2988 40.5069 11.703 41.2872 11.703 42.2032ZM24.9486 42.2032V44.6871C24.9486 45.6031 24.5445 46.3849 23.7362 47.0294C22.9279 47.6755 21.9529 47.9985 20.8097 47.9985H17.4983C16.3567 47.9985 15.3802 47.6755 14.5719 47.0294C13.7636 46.3834 13.3594 45.6031 13.3594 44.6871V42.2032C13.3594 41.2872 13.7636 40.5054 14.5719 39.8609C15.3802 39.2148 16.3552 38.8918 17.4983 38.8918H20.8097C21.9514 38.8918 22.9279 39.2148 23.7362 39.8609C24.5445 40.5069 24.9486 41.2872 24.9486 42.2032ZM22.8792 42.2032C22.8792 41.7445 22.6771 41.3551 22.2744 41.032C21.8717 40.709 21.3835 40.5482 20.8097 40.5482H17.4983C16.9245 40.5482 16.4363 40.709 16.0336 41.032C15.6309 41.3551 15.4289 41.7459 15.4289 42.2032V44.6871C15.4289 45.1458 15.6309 45.5352 16.0336 45.8583C16.4363 46.1813 16.9245 46.3421 17.4983 46.3421H20.8097C21.3835 46.3421 21.8717 46.1813 22.2744 45.8583C22.6771 45.5352 22.8792 45.1444 22.8792 44.6871V42.2032ZM38.1943 37.0288V44.6856C38.1943 45.6016 37.7901 46.3834 36.9818 47.028C36.1735 47.674 35.1985 47.9971 34.0554 47.9971H30.744C29.6023 47.9971 28.6258 47.674 27.8175 47.028C27.0092 46.3819 26.6051 45.6016 26.6051 44.6856V42.2017C26.6051 41.2857 27.0092 40.504 27.8175 39.8594C28.6258 39.2133 29.6008 38.8903 30.744 38.8903L36.1248 38.8814V37.0274C36.1248 36.6129 36.3313 36.4064 36.7458 36.4064H37.5733C37.9878 36.4064 38.1943 36.6129 38.1943 37.0274V37.0288ZM36.1248 40.5467H30.744C30.1702 40.5467 29.682 40.7075 29.2793 41.0306C28.8766 41.3536 28.6745 41.7445 28.6745 42.2017V44.6856C28.6745 45.1444 28.8766 45.5338 29.2793 45.8568C29.682 46.1798 30.1702 46.3406 30.744 46.3406H34.0554C34.6292 46.3406 35.1174 46.1798 35.5201 45.8568C35.9228 45.5338 36.1248 45.1429 36.1248 44.6856V40.5467ZM51.4399 46.9631V47.3775C51.4399 47.792 51.2334 47.9985 50.8189 47.9985H43.9896C42.8465 47.9985 41.8715 47.6755 41.0632 47.0294C40.2549 46.3834 39.8507 45.6031 39.8507 44.6871V42.2032C39.8507 41.2872 40.2549 40.5054 41.0632 39.8609C41.8715 39.2148 42.8465 38.8918 43.9896 38.8918H48.1285C49.0445 38.8918 49.8263 39.1543 50.4708 39.678C51.1169 40.2031 51.4399 40.8373 51.4399 41.5822C51.4399 42.3271 51.1169 42.9613 50.4708 43.4865C49.8248 44.0101 49.0445 44.2726 48.1285 44.2726H41.9202V44.6871C41.9202 45.1458 42.1222 45.5352 42.5249 45.8583C42.9276 46.1813 43.4158 46.3421 43.9896 46.3421H50.8189C51.2334 46.3421 51.4399 46.5486 51.4399 46.9631ZM41.9202 42.6177H48.1285C48.4707 42.6177 48.7628 42.5174 49.0061 42.3153C49.2495 42.1132 49.3705 41.8698 49.3705 41.5822C49.3705 41.2946 49.2495 41.0512 49.0061 40.8491C48.7628 40.647 48.4707 40.5467 48.1285 40.5467H43.9896C43.4158 40.5467 42.9276 40.7075 42.5249 41.0306C42.1222 41.3536 41.9202 41.7445 41.9202 42.2017V42.6162V42.6177Z" fill="white"/>
<path d="M66.5572 37.6424L57.1289 46.3435H66.3507C66.7652 46.3435 66.9717 46.55 66.9717 46.9645V47.379C66.9717 47.7935 66.7652 48 66.3507 48H54.3471C53.9326 48 53.7261 47.7935 53.7261 47.379C53.7261 47.2359 53.8662 47.0279 54.1479 46.758L63.5689 38.0657H54.3471C53.9326 38.0657 53.7261 37.8592 53.7261 37.4448V37.0303C53.7261 36.6158 53.9326 36.4093 54.3471 36.4093H66.3507C66.7652 36.4093 66.9717 36.6158 66.9717 37.0303C66.9717 37.1689 66.8331 37.3725 66.5572 37.6424ZM75.9988 38.8918H72.8364C71.6933 38.8918 70.7183 39.2148 69.91 39.8608C69.1017 40.5069 68.6975 41.2872 68.6975 42.2032V47.3775C68.6975 47.792 68.904 47.9985 69.3185 47.9985H70.146C70.5604 47.9985 70.7669 47.792 70.7669 47.3775V42.2032C70.7669 41.7444 70.969 41.355 71.3717 41.032C71.7744 40.709 72.2626 40.5482 72.8364 40.5482H75.9988C76.4133 40.5482 76.6198 40.3417 76.6198 39.9272V39.5127C76.6198 39.0983 76.4133 38.8918 75.9988 38.8918ZM88.8861 42.2032V44.6871C88.8861 45.6031 88.4819 46.3848 87.6736 47.0294C86.8653 47.6755 85.8903 47.9985 84.7472 47.9985H81.4357C80.2926 47.9985 79.3176 47.6755 78.5093 47.0294C77.701 46.3834 77.2968 45.6031 77.2968 44.6871V42.2032C77.2968 41.2872 77.701 40.5054 78.5093 39.8608C79.3176 39.2148 80.2926 38.8918 81.4357 38.8918H84.7472C85.8888 38.8918 86.8653 39.2148 87.6736 39.8608C88.4819 40.5069 88.8861 41.2872 88.8861 42.2032ZM86.8166 42.2032C86.8166 41.7444 86.6145 41.355 86.2118 41.032C85.8092 40.709 85.3209 40.5482 84.7472 40.5482H81.4357C80.862 40.5482 80.3737 40.709 79.9711 41.032C79.5684 41.355 79.3663 41.7459 79.3663 42.2032V44.6871C79.3663 45.1458 79.5684 45.5352 79.9711 45.8583C80.3737 46.1813 80.862 46.3421 81.4357 46.3421H84.7472C85.3209 46.3421 85.8092 46.1813 86.2118 45.8583C86.6145 45.5352 86.8166 45.1444 86.8166 44.6871V42.2032Z" fill="white"/>
<path d="M27.8483 5.50916H24.5428C23.9342 5.50916 23.4409 6.00246 23.4409 6.61099V9.91651C23.4409 10.525 23.9342 11.0183 24.5428 11.0183H27.8483C28.4568 11.0183 28.9501 10.525 28.9501 9.91651V6.61099C28.9501 6.00246 28.4568 5.50916 27.8483 5.50916Z" fill="white"/>
<path d="M31.6467 0H29.6628C29.2978 0 29.002 0.295854 29.002 0.660807V2.64471C29.002 3.00966 29.2978 3.30551 29.6628 3.30551H31.6467C32.0116 3.30551 32.3075 3.00966 32.3075 2.64471V0.660807C32.3075 0.295854 32.0116 0 31.6467 0Z" fill="white"/>
<path d="M61.1826 15.6101C60.7091 15.6101 60.2533 15.6853 59.827 15.824C58.5261 14.0259 56.4109 12.8562 54.0214 12.8562C53.3031 12.8562 52.6083 12.9624 51.9549 13.1586C51.6451 11.0272 49.8102 9.39143 47.5947 9.39143C46.4855 9.39143 45.4707 9.80296 44.6963 10.48C43.5001 8.19519 41.1061 6.63757 38.3493 6.63757C35.3698 6.63757 32.818 8.45627 31.7383 11.0449H33.3815C33.9907 11.0449 34.4833 11.5376 34.4833 12.1468V15.4508C34.4833 16.06 33.9907 16.5526 33.3815 16.5526H30.0774C29.4683 16.5526 28.9756 16.06 28.9756 15.4508V12.8562C25.024 12.8607 21.8232 16.0644 21.8232 20.0175C21.8232 23.9705 25.0299 27.1787 28.9844 27.1787C29.3473 27.1787 29.7028 27.1521 30.0494 27.099C31.107 29.729 33.6824 31.586 36.6929 31.586C38.3567 31.586 39.8863 31.0181 41.1017 30.0682C42.3171 31.0196 43.8467 31.586 45.5105 31.586C48.5771 31.586 51.1938 29.6582 52.213 26.9471C52.7897 27.0975 53.3975 27.1787 54.0214 27.1787C56.4094 27.1787 58.5246 26.009 59.827 24.2109C60.2548 24.3496 60.7091 24.4248 61.1826 24.4248C63.6164 24.4248 65.5899 22.4512 65.5899 20.0175C65.5899 17.5837 63.6164 15.6101 61.1826 15.6101ZM46.6021 20.96C46.6021 21.5677 46.1079 22.0618 45.5002 22.0618H42.1947C41.5855 22.0618 41.0929 22.5545 41.0929 23.1637V26.4677C41.0929 27.0754 40.5987 27.5695 39.991 27.5695H36.6855C36.0778 27.5695 35.5837 27.0754 35.5837 26.4677V23.1622C35.5837 22.5545 36.0778 22.0603 36.6855 22.0603H39.991C40.6002 22.0603 41.0929 21.5677 41.0929 20.9585V17.6545C41.0929 17.0453 40.6002 16.5526 39.991 16.5526H38.4482C38.0838 16.5526 37.7874 16.2562 37.7874 15.8918V13.9094C37.7874 13.5451 38.0838 13.2486 38.4482 13.2486H40.4306C40.7949 13.2486 41.0914 13.5451 41.0914 13.9094V15.4523C41.0914 16.0615 41.584 16.5541 42.1932 16.5541H45.4987C46.1064 16.5541 46.6006 17.0482 46.6006 17.6559V20.9615L46.6021 20.96Z" fill="white"/>
</g>
<defs>
<clipPath id="clip0_1555_17246">
<rect width="88.7724" height="48" fill="white" transform="translate(0.11377)"/>
</clipPath>
</defs>
</svg>
