<svg width="24" height="24" viewBox="0 0 24 24" fill="none" xmlns="http://www.w3.org/2000/svg">
<path d="M19.6688 5.05496C19.6623 5.04284 19.6516 5.0335 19.6388 5.02871C18.2101 4.37314 16.7026 3.90549 15.1538 3.63746C15.1398 3.63491 15.1255 3.63679 15.1127 3.64285C15.0999 3.64891 15.0893 3.65883 15.0825 3.67121C14.8771 4.04407 14.6906 4.42705 14.5238 4.81871C12.8533 4.56516 11.1542 4.56516 9.48375 4.81871C9.31625 4.42609 9.12721 4.043 8.9175 3.67121C8.91027 3.6592 8.89964 3.64958 8.88697 3.64358C8.8743 3.63758 8.86013 3.63545 8.84625 3.63746C7.29472 3.90429 5.78453 4.37197 4.35375 5.02871C4.3412 5.03403 4.33069 5.04323 4.32375 5.05496C1.46625 9.32621 0.682501 13.4887 1.065 17.6025C1.06608 17.6128 1.06931 17.6228 1.07448 17.6319C1.07964 17.6409 1.08663 17.6488 1.095 17.655C2.75949 18.8861 4.62095 19.8257 6.6 20.4337C6.61422 20.4381 6.62947 20.4379 6.64359 20.4332C6.65772 20.4285 6.67001 20.4195 6.67875 20.4075C7.10338 19.8294 7.47965 19.2173 7.80375 18.5775C7.80807 18.5687 7.81052 18.5591 7.81095 18.5493C7.81139 18.5395 7.80979 18.5297 7.80627 18.5205C7.80275 18.5114 7.79738 18.503 7.79049 18.4961C7.78361 18.4891 7.77536 18.4836 7.76625 18.48C7.1717 18.2521 6.59614 17.9775 6.045 17.6587C6.03526 17.6527 6.0271 17.6445 6.0212 17.6348C6.0153 17.625 6.01184 17.6139 6.0111 17.6025C6.01037 17.5911 6.01238 17.5797 6.01697 17.5693C6.02157 17.5588 6.02861 17.5496 6.0375 17.5425C6.15375 17.4562 6.27 17.3662 6.37875 17.2762C6.38835 17.2678 6.40014 17.2623 6.41275 17.2603C6.42536 17.2583 6.43828 17.2599 6.45 17.265C10.0575 18.9112 13.965 18.9112 17.5313 17.265C17.5426 17.2594 17.5554 17.2571 17.568 17.2585C17.5806 17.2598 17.5925 17.2646 17.6025 17.2725C17.7113 17.3625 17.8275 17.4562 17.9438 17.5425C17.9526 17.5496 17.9597 17.5588 17.9643 17.5693C17.9689 17.5797 17.9709 17.5911 17.9702 17.6025C17.9694 17.6139 17.966 17.625 17.9601 17.6348C17.9542 17.6445 17.946 17.6527 17.9363 17.6587C17.3865 17.9792 16.8107 18.2526 16.215 18.4762C16.2059 18.4799 16.1976 18.4853 16.1908 18.4923C16.1839 18.4993 16.1785 18.5076 16.175 18.5168C16.1715 18.5259 16.1699 18.5357 16.1703 18.5455C16.1707 18.5553 16.1732 18.5649 16.1775 18.5737C16.5073 19.2104 16.8833 19.822 17.3025 20.4037C17.3112 20.4158 17.3235 20.4248 17.3377 20.4295C17.3518 20.4342 17.367 20.4344 17.3813 20.43C19.366 19.8247 21.2329 18.8849 22.9013 17.6512C22.9098 17.6452 22.9169 17.6374 22.9221 17.6283C22.9273 17.6192 22.9304 17.6091 22.9313 17.5987C23.3888 12.8475 22.1588 8.71871 19.6688 5.05496ZM8.34375 15.0975C7.25625 15.0975 6.36375 14.1 6.36375 12.8775C6.36375 11.655 7.24125 10.6537 8.34375 10.6537C9.4575 10.6537 10.3425 11.6587 10.3238 12.8737C10.3238 14.1 9.44625 15.0975 8.34375 15.0975ZM15.6713 15.0975C14.5838 15.0975 13.6913 14.1 13.6913 12.8775C13.6913 11.655 14.565 10.6537 15.6713 10.6537C16.785 10.6537 17.67 11.6587 17.6513 12.8737C17.6513 14.1 16.7813 15.0975 15.6713 15.0975Z" fill="#F3F7F4"/>
</svg>
