<svg width="25" height="24" viewBox="0 0 25 24" fill="none" xmlns="http://www.w3.org/2000/svg">
<g clip-path="url(#clip0_1850_3974)">
<path fill-rule="evenodd" clip-rule="evenodd" d="M12.2142 0.484741C5.59833 0.484741 0.25 5.76254 0.25 12.2919C0.25 17.5112 3.67686 21.9292 8.43082 23.4928C9.02518 23.6104 9.2429 23.2388 9.2429 22.9262C9.2429 22.6525 9.22331 21.7142 9.22331 20.7366C5.89514 21.4405 5.20208 19.3291 5.20208 19.3291C4.66722 17.9607 3.87473 17.609 3.87473 17.609C2.78543 16.8857 3.95408 16.8857 3.95408 16.8857C5.16241 16.964 5.79645 18.0977 5.79645 18.0977C6.86592 19.896 8.58926 19.3879 9.28257 19.0751C9.38151 18.3127 9.69865 17.7849 10.0354 17.4917C7.38094 17.218 4.58812 16.2016 4.58812 11.6662C4.58812 10.3761 5.06322 9.3205 5.81604 8.49956C5.69727 8.2064 5.28118 6.99419 5.93506 5.37175C5.93506 5.37175 6.94527 5.05892 9.22306 6.58372C10.1983 6.32527 11.204 6.19379 12.2142 6.19268C13.2244 6.19268 14.2542 6.32967 15.2052 6.58372C17.4832 5.05892 18.4934 5.37175 18.4934 5.37175C19.1473 6.99419 18.731 8.2064 18.6122 8.49956C19.3849 9.3205 19.8404 10.3761 19.8404 11.6662C19.8404 16.2016 17.0476 17.1983 14.3733 17.4917C14.8092 17.8631 15.1853 18.5667 15.1853 19.6811C15.1853 21.2644 15.1658 22.5352 15.1658 22.9259C15.1658 23.2388 15.3837 23.6104 15.9778 23.4931C20.7318 21.9289 24.1587 17.5112 24.1587 12.2919C24.1782 5.76254 18.8103 0.484741 12.2142 0.484741Z" fill="#F3F7F4"/>
</g>
<defs>
<clipPath id="clip0_1850_3974">
<rect width="24" height="23.5102" fill="white" transform="translate(0.25 0.244873)"/>
</clipPath>
</defs>
</svg>
