<svg width="30" height="24" viewBox="0 0 30 24" fill="none" xmlns="http://www.w3.org/2000/svg">
<path d="M8.46094 5.22375C3.7875 5.22375 0 8.2725 0 12.0375C0 15.8025 3.7875 18.8513 8.46094 18.8513C13.1344 18.8513 16.9219 15.8025 16.9219 12.0375C16.9219 8.2725 13.1344 5.22375 8.46094 5.22375ZM21.975 5.62125C19.6406 5.62125 17.7469 8.49375 17.7469 12.0375C17.7469 15.5813 19.6406 18.4538 21.9797 18.4538C24.3188 18.4538 26.2125 15.5813 26.2125 12.0375H26.2031C26.2031 8.49375 24.3094 5.62125 21.975 5.62125ZM28.5141 6.28875C27.6937 6.28875 27.0281 8.86125 27.0281 12.0375C27.0281 15.2138 27.6937 17.7863 28.5141 17.7863C29.3344 17.7863 30 15.21 30 12.0375C30 8.86501 29.3344 6.28875 28.5141 6.28875Z" fill="#F3F7F4"/>
</svg>
