<svg width="24" height="24" viewBox="0 0 24 24" fill="none" xmlns="http://www.w3.org/2000/svg">
<path fill-rule="evenodd" clip-rule="evenodd" d="M10.6372 23.1395C9.56915 23.1395 8.52858 22.9184 7.54115 22.4812C5.62801 21.6344 4.15373 20.0778 3.38744 18.0961C2.62115 16.1161 2.65544 13.9492 3.48173 11.9966C3.94973 10.8892 4.66973 9.8915 5.56287 9.10807C5.50973 7.90636 5.72915 6.6875 6.19715 5.58007C7.43315 2.65721 10.2669 0.768072 13.4143 0.768072H13.6714H15.6909C17.3572 0.768072 19.3663 0.766357 19.6063 0.766357C20.1874 0.766357 20.6177 1.13493 20.6966 1.21036C20.7737 1.27893 21.168 1.66636 21.168 2.37093C21.168 2.71036 21.1663 5.42579 21.1646 7.22407L21.1629 8.77379C21.1594 9.8555 20.9434 10.9115 20.52 11.9126C20.052 13.0201 19.332 14.0178 18.4389 14.8012C18.492 16.0029 18.2726 17.2218 17.8046 18.3292C16.5652 21.2504 13.7537 23.1395 10.6372 23.1395ZM6.02058 11.4549C5.71544 11.8561 5.4583 12.2984 5.25773 12.7715C4.63373 14.2458 4.60973 15.8812 5.18744 17.3744C5.76515 18.8675 6.87601 20.0401 8.3143 20.6761C9.05658 21.0052 9.8383 21.1715 10.6389 21.1715C12.9806 21.1715 15.096 19.7504 16.0252 17.5492C16.2274 17.0726 16.368 16.5738 16.4434 16.0681C15.4697 16.4966 14.4034 16.7212 13.3509 16.7212C12.2846 16.7212 11.2423 16.5001 10.2549 16.0629C9.10972 15.5555 8.09144 14.7686 7.30801 13.7846C6.76458 13.1006 6.32058 12.2966 6.02058 11.4549ZM7.62001 10.0098C8.01944 11.9041 9.28972 13.4898 11.028 14.2595C11.7703 14.5886 12.552 14.7549 13.3526 14.7549C14.4189 14.7549 15.4629 14.4584 16.3783 13.8961C15.9789 12.0018 14.7086 10.4161 12.9703 9.64636C12.228 9.31721 11.4463 9.15093 10.6457 9.15093C9.57944 9.14921 8.53373 9.4475 7.62001 10.0098ZM10.7143 7.18293C11.7583 7.1915 12.7766 7.41436 13.7417 7.84121C14.8869 8.34864 15.9052 9.1355 16.6886 10.1178C17.2337 10.8018 17.6777 11.6058 17.9777 12.4475C18.2846 12.0464 18.54 11.6041 18.7406 11.1309C19.0989 10.2824 19.0989 9.30693 19.0989 8.44464C19.0989 8.26636 19.0989 8.07779 19.0989 7.88236V7.65779C19.0989 7.20521 19.0989 6.69264 19.0989 6.2195C19.0972 5.59207 19.0972 4.96122 19.0989 4.41779V4.2755C19.0989 4.09721 19.0989 3.93264 19.0989 3.78521V2.83893C19.0989 2.83893 13.4829 2.83893 13.4812 2.83893C13.4297 2.83893 13.3989 2.83893 13.3817 2.83893C13.3749 2.83893 13.368 2.83893 13.3612 2.83893H13.3543C11.0229 2.83893 8.85944 4.2515 7.97144 6.35321C7.76915 6.82979 7.62858 7.32864 7.55315 7.83436C8.5063 7.41607 9.54687 7.18979 10.5754 7.18121L10.7143 7.18293Z" fill="#F3F7F4"/>
<path fill-rule="evenodd" clip-rule="evenodd" d="M10.6372 23.071C9.57945 23.071 8.54745 22.8515 7.56859 22.4178C5.67259 21.5778 4.2103 20.035 3.45088 18.0704C2.69145 16.1075 2.72402 13.9595 3.54345 12.0224C4.01316 10.9133 4.73316 9.91725 5.63145 9.13725C5.57316 7.93382 5.78916 6.71497 6.25888 5.60582C7.48459 2.70868 10.2926 0.834966 13.4126 0.834966H13.6697C14.7943 0.834966 19.2412 0.833252 19.6029 0.833252C20.1583 0.833252 20.5663 1.18297 20.6469 1.25839C20.7257 1.32868 21.096 1.69554 21.096 2.36925C21.096 2.79782 21.0926 7.04925 21.0909 8.34182V8.77211C21.0875 9.84525 20.8732 10.8927 20.4532 11.8853C19.9834 12.9944 19.2634 13.9904 18.3652 14.7704C18.4234 15.9738 18.2074 17.1927 17.7377 18.3018C16.5137 21.1973 13.7263 23.071 10.6372 23.071ZM6.04459 11.3144C5.70002 11.7464 5.41545 12.2264 5.1943 12.7458C4.56345 14.2373 4.53773 15.8898 5.1223 17.4001C5.70688 18.9087 6.82973 20.095 8.28516 20.7395C9.03602 21.0721 9.82802 21.2401 10.6372 21.2401C13.0063 21.2401 15.1457 19.8018 16.0869 17.575C16.308 17.0521 16.4554 16.5087 16.5257 15.9533C15.5297 16.411 14.4377 16.6527 13.3492 16.6527C12.2914 16.6527 11.2594 16.4333 10.2806 15.9995C9.14573 15.4973 8.13602 14.7155 7.35945 13.7418C6.79373 13.027 6.34116 12.1938 6.04459 11.3144ZM7.54288 9.97554C7.93545 11.9144 9.21945 13.5327 10.9989 14.3213C11.7497 14.6538 12.54 14.8218 13.3509 14.8218C14.448 14.8218 15.5177 14.5133 16.4537 13.927C16.0612 11.9881 14.7772 10.3698 12.9977 9.58125C12.2469 9.24868 11.4566 9.08068 10.6457 9.08068C9.54859 9.08068 8.47888 9.39097 7.54288 9.97554ZM10.6457 7.25154C11.7034 7.25154 12.7354 7.47097 13.7143 7.90468C14.8492 8.40697 15.8589 9.18697 16.6354 10.1624C17.2046 10.8773 17.6572 11.7104 17.9537 12.5915C18.2983 12.1595 18.5829 11.6795 18.804 11.1601C19.1674 10.2995 19.1674 9.31554 19.1674 8.44811C19.1674 8.24239 19.1674 8.02125 19.1674 7.79325V7.76582C19.1674 7.28068 19.1674 6.73211 19.1674 6.22125C19.1657 5.58525 19.1657 4.93897 19.1674 4.41954V4.37497C19.1674 4.15897 19.1674 3.96182 19.1674 3.78697V2.77211H13.4846C13.4263 2.77211 13.3937 2.77211 13.3749 2.77211C13.3697 2.77211 13.3629 2.77211 13.3577 2.77211H13.3543C10.9954 2.77211 8.80802 4.20182 7.90802 6.32754C7.68688 6.8504 7.53945 7.39382 7.46916 7.94925C8.46516 7.49154 9.55716 7.25154 10.6457 7.25154Z" fill="#F3F7F4"/>
<path fill-rule="evenodd" clip-rule="evenodd" d="M10.4914 12.5263C10.9131 12.5263 11.2543 12.1766 11.2543 11.7463C11.2543 11.316 10.9131 10.9663 10.4914 10.9663C10.0697 10.9663 9.72858 11.316 9.72858 11.7463C9.72858 12.1766 10.0697 12.5263 10.4914 12.5263Z" fill="#F3F7F4"/>
<path fill-rule="evenodd" clip-rule="evenodd" d="M14.2303 12.0343C14.2303 12.6086 13.776 13.0749 13.2137 13.0749C12.6532 13.0749 12.1972 12.6086 12.1972 12.0343C12.1972 11.4601 12.6514 10.9938 13.2137 10.9938C13.7743 10.9955 14.2303 11.4601 14.2303 12.0343Z" fill="#F3F7F4"/>
</svg>
