<svg width="24" height="24" viewBox="0 0 24 24" fill="none" xmlns="http://www.w3.org/2000/svg">
<g clip-path="url(#clip0_1850_3972)">
<path d="M11.625 0.375C5.20312 0.375 0 5.57812 0 12C0 18.4219 5.20312 23.625 11.625 23.625C18.0469 23.625 23.25 18.4219 23.25 12C23.25 5.57812 18.0469 0.375 11.625 0.375ZM17.0156 8.28281C16.8422 10.1203 16.0828 14.5828 15.6984 16.6406C15.5344 17.5125 15.2156 17.8031 14.9062 17.8312C14.2312 17.8922 13.7203 17.3859 13.0641 16.9547C12.0422 16.2844 11.4609 15.8672 10.4719 15.2109C9.32344 14.4563 10.0687 14.0391 10.7203 13.3594C10.8938 13.1812 13.8656 10.4766 13.9219 10.2328C13.9312 10.2 13.9359 10.0875 13.8656 10.0266C13.7953 9.96562 13.6969 9.98906 13.6266 10.0031C13.5234 10.025 11.8891 11.1047 8.72344 13.2422C8.26094 13.5609 7.84062 13.7156 7.4625 13.7062C7.04531 13.6969 6.24844 13.4719 5.65312 13.2797C4.92656 13.0453 4.34531 12.9187 4.39688 12.5156C4.42188 12.3062 4.71094 12.0922 5.26406 11.8734C8.65156 10.3984 10.9109 9.425 12.0422 8.95312C15.2719 7.6125 15.9422 7.37812 16.3781 7.36875C16.4766 7.36875 16.6875 7.39219 16.8281 7.50469C16.9199 7.58538 16.9784 7.69733 16.9922 7.81875C17.0175 7.97205 17.0254 8.12774 17.0156 8.28281Z" fill="#F3F7F4"/>
</g>
<defs>
<clipPath id="clip0_1850_3972">
<rect width="23.25" height="24" fill="white"/>
</clipPath>
</defs>
</svg>
